<?xml version="1.0" encoding="UTF-8"?>
<svg version="1.1" xmlns="http://www.w3.org/2000/svg" width="800" height="800">
<path d="M0 0 C264 0 528 0 800 0 C800 264 800 528 800 800 C536 800 272 800 0 800 C0 536 0 272 0 0 Z " fill="#17171E" transform="translate(0,0)"/>
<path d="M0 0 C0.8280011 -0.0049649 1.6560022 -0.00992981 2.50909424 -0.01504517 C5.25118845 -0.02966181 7.99322477 -0.03646861 10.73535156 -0.04199219 C12.64243572 -0.04774486 14.54951987 -0.05350258 16.456604 -0.05926514 C20.45805124 -0.06977426 24.4594784 -0.07561724 28.4609375 -0.07910156 C33.57989862 -0.08458051 38.69859298 -0.10859612 43.81747055 -0.13707352 C47.75865444 -0.15573059 51.69977453 -0.16090717 55.64099884 -0.16243744 C57.52758489 -0.16545849 59.41416997 -0.17346848 61.30071259 -0.18662262 C63.94547077 -0.20374434 66.58958335 -0.2017878 69.234375 -0.1953125 C70.39580017 -0.20913467 70.39580017 -0.20913467 71.58068848 -0.22323608 C77.4481237 -0.17840628 82.19274142 0.95172292 86.84472656 4.78222656 C91.01170038 9.72519295 94.21809688 14.93747639 97.29785156 20.62207031 C98.77862102 23.39512624 98.77862102 23.39512624 101.87597656 25.16113281 C101.87597656 25.82113281 101.87597656 26.48113281 101.87597656 27.16113281 C102.9265625 27.13792969 103.97714844 27.11472656 105.05957031 27.09082031 C116.80840091 26.90321982 125.78253564 26.84542039 134.87597656 35.16113281 C143.14090349 43.61389898 144.47102238 51.95499641 144.40942383 63.41674805 C144.4180394 64.71873138 144.42665497 66.02071472 144.43553162 67.3621521 C144.45790133 70.90983321 144.45511536 74.45706559 144.44621015 78.00479007 C144.44107465 80.97678198 144.44841348 83.94869145 144.45568222 86.92067486 C144.47264184 93.93685561 144.46915542 100.95281866 144.45239258 107.96899414 C144.43547428 115.18498363 144.4513102 122.40036803 144.48361546 129.61629146 C144.51038414 135.83318353 144.51756786 142.04988807 144.50910038 148.26683193 C144.50419234 151.97051465 144.50627043 155.67383358 144.52688789 159.37747002 C144.54879882 163.51073355 144.52976468 167.6428636 144.50708008 171.77612305 C144.51877228 172.98838058 144.53046448 174.20063812 144.54251099 175.44963074 C144.4278747 185.7469158 141.1844217 193.85268768 133.87597656 201.16113281 C125.53544732 207.87469783 115.95378244 208.46526261 105.59815979 208.42182922 C104.61324065 208.42565477 103.6283215 208.42948032 102.61355633 208.43342179 C99.33972743 208.44367435 96.06607646 208.43977444 92.79223633 208.43579102 C90.43425333 208.44014174 88.07627174 208.44532609 85.71829224 208.45127869 C79.33196986 208.46464016 72.94570677 208.46525059 66.55937314 208.46271539 C62.56613303 208.46191381 58.57290213 208.46405951 54.57966423 208.46770287 C53.91533302 208.46829805 53.25100181 208.46889324 52.56653936 208.46950647 C51.21666074 208.4707183 49.86678213 208.47193244 48.51690351 208.47314885 C35.87837611 208.48400719 23.23987544 208.48186983 10.60134654 208.475764 C-0.94306969 208.47059486 -12.48740155 208.48185324 -24.0318011 208.50086222 C-35.90747909 208.52026567 -47.78311721 208.52849232 -59.65881115 208.52473897 C-66.31737332 208.52283092 -72.97587409 208.52554291 -79.63442802 208.53945351 C-85.89635073 208.55204677 -92.1581047 208.55007338 -98.42002487 208.53704262 C-100.71330765 208.53468069 -103.00660236 208.5373977 -105.29987144 208.54566574 C-108.43984942 208.5561671 -111.57926474 208.54800513 -114.71922302 208.53535461 C-115.61807911 208.5427289 -116.51693519 208.55010318 -117.44302934 208.55770093 C-127.41697281 208.47365639 -136.92586119 206.43804957 -144.12402344 199.16113281 C-149.22113593 192.82663666 -152.36290021 186.6832282 -152.39144897 178.41300964 C-152.39997894 177.29027145 -152.40850891 176.16753326 -152.41729736 175.01077271 C-152.41593781 173.18484085 -152.41593781 173.18484085 -152.41455078 171.32202148 C-152.42126801 170.0286235 -152.42798523 168.73522552 -152.43490601 167.40263367 C-152.45252344 163.86528834 -152.4572596 160.32803986 -152.45853758 156.7906549 C-152.45996225 154.57706883 -152.46423783 152.36350714 -152.46953201 150.14992714 C-152.48801878 142.41723704 -152.4962044 134.68461576 -152.49462891 126.9519043 C-152.49342813 119.76048135 -152.51452118 112.56935884 -152.54611623 105.37801188 C-152.57232731 99.19010141 -152.58299417 93.00228876 -152.58171809 86.81432325 C-152.58120983 83.12462972 -152.58681665 79.43520331 -152.60807419 75.74556541 C-152.63116034 71.62631296 -152.62190629 67.50772734 -152.60986328 63.38842773 C-152.62110229 62.17721252 -152.63234131 60.96599731 -152.6439209 59.71807861 C-152.56885124 49.59543468 -150.01782946 42.40947907 -143.12792969 34.95410156 C-137.40600783 29.83448727 -131.09309527 27.0085555 -123.43652344 27.09863281 C-122.44265625 27.10765625 -121.44878906 27.11667969 -120.42480469 27.12597656 C-119.28591797 27.14337891 -119.28591797 27.14337891 -118.12402344 27.16113281 C-118.17042969 26.58105469 -118.21683594 26.00097656 -118.26464844 25.40332031 C-118.52399798 19.79025527 -118.05147943 16.51317865 -114.12402344 12.16113281 C-109.40700691 9.50041222 -104.44858504 9.85514405 -99.18652344 9.86035156 C-98.22883057 9.85606644 -97.2711377 9.85178131 -96.28442383 9.84736633 C-94.26384266 9.84163493 -92.24324087 9.84111399 -90.22265625 9.84545898 C-87.13473317 9.84862184 -84.04776588 9.82513472 -80.95996094 9.79980469 C-78.99381631 9.79753184 -77.02766911 9.79682813 -75.06152344 9.79785156 C-74.14056885 9.78864182 -73.21961426 9.77943207 -72.27075195 9.76994324 C-67.39838039 9.80505324 -64.06939109 9.97244412 -60.12402344 13.16113281 C-57.37374942 16.38559201 -56.97927788 18.73541775 -57.04980469 22.84082031 C-57.06587769 24.05487549 -57.06587769 24.05487549 -57.08227539 25.29345703 C-57.09605225 25.90979004 -57.1098291 26.52612305 -57.12402344 27.16113281 C-52.91419895 27.19656603 -48.70854774 27.15455104 -44.49902344 27.09863281 C-42.71431641 27.11506836 -42.71431641 27.11506836 -40.89355469 27.13183594 C-34.6501649 27.14752706 -34.6501649 27.14752706 -29.07006836 24.75366211 C-27.49341521 22.97068576 -26.29660081 21.22931122 -25.12402344 19.16113281 C-24.5065625 18.13890625 -23.88910156 17.11667969 -23.25292969 16.06347656 C-22.47755859 14.59587891 -22.47755859 14.59587891 -21.68652344 13.09863281 C-16.29417268 3.5574002 -10.97004018 0.01567391 0 0 Z " fill="#F9F9F9" transform="translate(404.1240234375,214.8388671875)"/>
<path d="M0 0 C1 1 1 1 1.625 3.625 C1 7 1 7 -0.8671875 8.49609375 C-1.65351563 9.01300781 -2.43984375 9.52992188 -3.25 10.0625 C-9.40352809 14.47446353 -10.68820062 19.7611071 -12 27 C-13.0549387 35.30309511 -13.15355017 43.64004649 -13 52 C-9.81673446 50.64495842 -8.22392451 49.33455913 -6.30078125 46.47265625 C-5.81851074 45.76834473 -5.33624023 45.0640332 -4.83935547 44.33837891 C-4.33549316 43.58733887 -3.83163086 42.83629883 -3.3125 42.0625 C5.66137561 29.0316791 15.7424569 17.14108576 27 6 C27.33 5.67 27.66 5.34 28 5 C30.5 4.875 30.5 4.875 33 5 C34 6 34 6 34.23828125 9.15625 C33.97826945 13.35053867 33.05475652 15.75674103 31.1875 19.5 C30.73032593 20.43682617 30.73032593 20.43682617 30.26391602 21.39257812 C29.57517689 22.80340692 28.88072695 24.21145716 28.18164062 25.6171875 C14.1061601 51.0857515 14.1061601 51.0857515 9 79 C9.66 79.66 10.32 80.32 11 81 C15.94684281 80.78014032 18.41902165 79.31815425 22 76 C23.48395269 73.75610878 24.79597408 71.60576341 26.0625 69.25 C26.40974121 68.62601318 26.75698242 68.00202637 27.11474609 67.35913086 C28.89228013 64.14074864 30.56268203 60.88977969 32.125 57.5625 C36.26869362 49.22176047 42.39907577 44.51799084 51 41 C55.55154882 40.41270338 58.98669798 40.72217994 63 43 C68.89297973 49.54775525 68.45886203 55.64610476 68.15820312 64.03564453 C67.83671281 68.02748267 66.56691558 71.34386364 65 75 C67.8467417 74.68369537 69.69781736 74.21061214 72.0625 72.5625 C76.00054146 67.35412259 77.74276374 61.03406621 79.5 54.8125 C80.8209316 50.33404741 82.19490263 46.76684504 85 43 C88.1875 42 88.1875 42 91 42 C91.33 42.33 91.66 42.66 92 43 C91.58236545 50.6566334 88.77547023 56.91641847 85.75 63.875 C84.5570419 68.84565873 84.6597452 73.91200378 85 79 C86.08113116 80.27487723 86.08113116 80.27487723 88.625 80.4375 C93.34234554 79.82599224 95.87727966 77.48565152 99 74 C102.94184083 68.81541132 103.35210952 62.65096987 104.37304688 56.39257812 C105.34382508 50.97003043 106.47146151 47.27843661 110 43 C113 41 113 41 116 41.1875 C119.12883928 42.03489397 120.06005027 42.50905863 122 45 C122.23734507 52.47636979 119.55010935 57.03645338 115.49609375 63.203125 C113.92561247 66.1390639 113.67202275 67.73215395 114 71 C115.72476911 71.95502158 115.72476911 71.95502158 118 72 C123.38022825 67.88103837 125.00394602 62.62345466 127.1875 56.375 C127.8653026 54.48583269 128.5461637 52.59775919 129.23046875 50.7109375 C129.52332764 49.87868652 129.81618652 49.04643555 130.11791992 48.18896484 C131 46 131 46 133 43 C136.125 42.8125 136.125 42.8125 139 43 C140.56467865 46.95998919 139.35054296 49.51384867 137.875 53.375 C137.41480469 54.60992187 136.95460938 55.84484375 136.48046875 57.1171875 C135.98788761 58.41180434 135.49439274 59.70607389 135 61 C134.04998527 63.49576918 133.11530581 65.99572185 132.1875 68.5 C131.55908203 70.15515625 131.55908203 70.15515625 130.91796875 71.84375 C129.98164704 75.06310295 129.82433861 77.66745241 130 81 C133.64732701 80.74553533 135.61439137 80.3084869 138.5 78 C143.40759855 72.11088174 147.09787996 66.11752529 150.07421875 59.0625 C151.39688846 56.1157928 153.09300517 53.6004475 155 51 C156.11375 49.453125 156.11375 49.453125 157.25 47.875 C161.91549549 42.99743653 166.40636979 40.80272903 173.1875 40.5 C176.66599048 40.64426919 177.93061568 40.95808031 181 42.8125 C184.68795626 46.84620216 185.50802265 49.29607131 185.37890625 54.58984375 C184.5183196 60.0638846 181.09190464 64.23896732 177.0625 67.875 C171.12614265 71.9941051 165.56719997 72.32866814 158.51171875 72.75390625 C156.0628473 72.72555733 156.0628473 72.72555733 155 74 C154.7499227 76.45809998 154.7499227 76.45809998 155 79 C157.52416204 81.52416204 158.49784796 81.32525352 162 81.375 C170.10550256 81.20525126 177.45898046 78.52095537 183.42578125 72.9296875 C186.8097193 68.7816344 188.78006573 63.83225402 191 59 C192.39656792 56.13571441 193.82284808 53.28664118 195.25 50.4375 C195.591521 49.74672363 195.93304199 49.05594727 196.28491211 48.34423828 C197.72979153 45.43721426 199.19652029 42.70521957 201 40 C204.125 39.8125 204.125 39.8125 207 40 C206.979375 40.60585938 206.95875 41.21171875 206.9375 41.8359375 C207.11186132 48.91936602 209.36961789 52.35318403 213.98828125 57.59375 C216.70345252 60.84141116 218.2872263 64.14625916 220 68 C221.95777358 67.8205828 221.95777358 67.8205828 224 67 C225.16239922 65.17100364 225.16239922 65.17100364 225.859375 62.828125 C226.16625244 61.94632568 226.47312988 61.06452637 226.78930664 60.15600586 C227.10633545 59.19702393 227.42336426 58.23804199 227.75 57.25 C228.45051296 55.23522115 229.15237038 53.22090932 229.85546875 51.20703125 C230.21044434 50.17529785 230.56541992 49.14356445 230.93115234 48.08056641 C243.28360465 12.47909469 243.28360465 12.47909469 252.03515625 5.890625 C255.85566662 4.15886285 259.94172162 4.0847589 264 5 C265.765625 6.16796875 265.765625 6.16796875 267 8 C269.19624204 20.55518366 263.92778819 32.0678823 257.0859375 42.30078125 C252.15149536 48.68598634 246.24982913 54.22789325 240 59.3125 C236.96999801 61.85566714 235.31916852 64.19769074 234 68 C233.62393478 72.43756964 233.50544083 74.25816125 236 78 C241.21017743 78.60117432 244.66858706 77.94904711 249 75 C257.78245912 66.46977861 260.83954396 52.57839987 264.74560547 41.28100586 C266.77622681 35.47002897 269.13558416 29.86733145 271.62109375 24.234375 C273.2906056 20.31835288 274.69906277 16.342542 276.04296875 12.3046875 C277.07575222 9.81757629 278.18905658 7.99294778 280 6 C282.6875 5.75 282.6875 5.75 285 6 C286.99879736 11.31572055 284.55392895 15.36672053 282.4375 20.25 C281.68717748 22.04565487 280.93982629 23.84255395 280.1953125 25.640625 C279.82180664 26.53974609 279.44830078 27.43886719 279.06347656 28.36523438 C277.51569358 32.19987028 276.15208046 36.08871161 274.8125 40 C272.81451025 45.79096496 270.62780285 51.44951401 268.23046875 57.08984375 C263.32456105 68.19411072 263.32456105 68.19411072 261 80 C265.1968003 80.41968003 267.42123892 80.35434352 271.0625 78.125 C278.23585886 71.25608077 281.38161994 61.86748449 284.60546875 52.734375 C285.87127027 49.34472163 287.31628745 46.19855717 289 43 C290.98 43 292.96 43 295 43 C295.80048098 50.92698526 292.27146624 57.31737807 289.19921875 64.46289062 C286.78262049 70.29724928 285.45725184 74.67547632 286 81 C292.5516011 79.8207118 295.15316881 77.31631827 299 72 C300.97629096 68.73881293 302.74671222 65.3853107 304.5 62 C313.40461178 44.80665738 313.40461178 44.80665738 322 42 C325.3954889 42.11510132 327.86329408 42.26926048 330.75 44.125 C332.61600086 46.92400129 333.76103307 49.87308347 335 53 C340.69728487 52.827355 343.35235152 48.85708284 347 45 C349.1875 43 349.1875 43 351 42 C353.25 42.3125 353.25 42.3125 355 43 C355.70825195 45.25732422 355.70825195 45.25732422 356 48 C354.67651367 49.98876953 354.67651367 49.98876953 352.66796875 51.8828125 C351.95189453 52.57503906 351.23582031 53.26726562 350.49804688 53.98046875 C349.73556641 54.68816406 348.97308594 55.39585937 348.1875 56.125 C346.6999573 57.54231536 345.21420231 58.96150999 343.73046875 60.3828125 C342.73116333 61.31697998 342.73116333 61.31697998 341.71166992 62.27001953 C339.49802954 64.50734028 338.09010128 66.19438857 337.734375 69.375 C337.73953125 70.24125 337.7446875 71.1075 337.75 72 C337.74484375 72.86625 337.7396875 73.7325 337.734375 74.625 C337.84585448 77.265795 337.84585448 77.265795 340 80 C342.43861682 80.53157665 342.43861682 80.53157665 345 80 C350.79862439 75.51639842 354.48073005 68.29085617 358 62 C359.65 62.33 361.3 62.66 363 63 C363.71484375 64.57421875 363.71484375 64.57421875 364 67 C362.95799197 69.43728943 361.90168745 71.5490295 360.5625 73.8125 C360.0197644 74.74582153 360.0197644 74.74582153 359.46606445 75.69799805 C355.90265028 81.5769771 351.69259688 86.76913437 345 89 C337.93264249 89.68393782 337.93264249 89.68393782 334.1875 86.9375 C331.75420868 83.66993737 330.41686598 80.80316659 329 77 C323.22709329 77.56815954 321.05433336 80.81334761 317.37890625 84.96875 C314.55006878 87.38417772 312.67508453 87.79324419 309 88 C308 87 308 87 307.7253418 84.65991211 C308.0689323 81.33242894 308.90099117 80.60115809 311.39453125 78.44140625 C312.10287109 77.80783203 312.81121094 77.17425781 313.54101562 76.52148438 C314.29060547 75.87501953 315.04019531 75.22855469 315.8125 74.5625 C323.67120579 68.02042679 323.67120579 68.02042679 327.328125 58.734375 C327.24780019 54.73690688 327.24780019 54.73690688 326 51 C323.02887936 51.31833435 321.43201958 51.56302606 319.296875 53.72265625 C318.78640625 54.49480469 318.2759375 55.26695312 317.75 56.0625 C317.15574219 56.95839844 316.56148437 57.85429687 315.94921875 58.77734375 C314.11012279 61.81793326 312.39770994 64.89734042 310.70556641 68.02050781 C306.33330706 76.07024629 302.02200019 83.7389999 293.5 88 C289.21497664 89.22429239 286.44562397 89.50192529 282 89 C279 87.125 279 87.125 277 85 C277 84.34 277 83.68 277 83 C276.113125 83.61875 275.22625 84.2375 274.3125 84.875 C268.62283263 88.52497529 264.70602284 89.63866884 258 89 C255.25473287 86.90492772 253.92119996 84.88179993 252 82 C250.01716521 83.11852219 248.03882377 84.24501325 246.0625 85.375 C244.96035156 86.00148438 243.85820312 86.62796875 242.72265625 87.2734375 C239.92556953 88.71898614 239.92556953 88.71898614 239 91 C238.82798362 92.42538125 238.70340792 93.85668362 238.60546875 95.2890625 C238.53650391 96.14886719 238.46753906 97.00867188 238.39648438 97.89453125 C238.25901104 99.69067815 238.131134 101.48758977 238.01367188 103.28515625 C237.40379692 110.54968446 235.55820417 116.77620837 230.3125 122.0625 C226.39448546 124.35416888 224.36064844 124.42738023 219.98828125 123.6484375 C218 123 218 123 216 121.1875 C211.04091699 110.33950591 215.19191917 97.91655519 218 87 C218.33 86.34 218.66 85.68 219 85 C218.40574219 85.28875 217.81148438 85.5775 217.19921875 85.875 C210.71770862 88.77807141 205.093266 89.96257568 198 89 C195 87.6875 195 87.6875 193 86 C192.38125 85.54625 191.7625 85.0925 191.125 84.625 C190 83 190 83 190.3125 80.3125 C190.6528125 79.1678125 190.6528125 79.1678125 191 78 C192.75 77.3125 192.75 77.3125 195 77 C195.8353125 77.7115625 195.8353125 77.7115625 196.6875 78.4375 C199.8043454 80.54347662 202.23493274 80.55022047 205.9375 80.41015625 C208.22897176 80.15300957 208.22897176 80.15300957 210.0625 77.9375 C211.78274743 72.54739137 211.54613626 68.68916268 209 63.6875 C208.62875 63.03136719 208.2575 62.37523437 207.875 61.69921875 C207 60 207 60 207 58 C205.02 58 203.04 58 201 58 C200.11248047 59.73636719 200.11248047 59.73636719 199.20703125 61.5078125 C198.40924216 63.04707616 197.61104324 64.58612745 196.8125 66.125 C196.42513672 66.88554688 196.03777344 67.64609375 195.63867188 68.4296875 C190.54906669 78.18826935 184.09158133 84.80163671 173.47265625 88.49609375 C166.70574663 89.8751322 159.18643478 90.15666836 152.6640625 87.7890625 C149.64845335 85.76391735 148.93354974 84.45413403 148 81 C147.32453125 81.49371094 146.6490625 81.98742187 145.953125 82.49609375 C145.06109375 83.13675781 144.1690625 83.77742187 143.25 84.4375 C142.36828125 85.07558594 141.4865625 85.71367188 140.578125 86.37109375 C135.78819332 89.39745967 131.53956166 89.26378865 126 89 C125.01 88.34 124.02 87.68 123 87 C123 86.34 123 85.68 123 85 C122.34 85 121.68 85 121 85 C120.67 83.35 120.34 81.7 120 80 C111.69549109 78.97011012 106.75960327 80.67507887 99.82421875 85.2734375 C94.20700971 88.70747124 89.43276666 89.51053704 83 89 C78.78714098 87.2212373 77.06854607 85.02822129 75 81 C73.2984375 81.495 73.2984375 81.495 71.5625 82 C68.40894579 82.82025663 65.8628957 83.0039526 62.625 82.75 C58.53647575 82.60998205 56.48839743 83.72225617 53.125 86 C47.83512586 89.50454162 43.2282232 90.03472079 37 89 C32.69137006 87.32355126 30.79372042 84.56975387 28 81 C27.54109375 81.40992188 27.0821875 81.81984375 26.609375 82.2421875 C25.99578125 82.78101563 25.3821875 83.31984375 24.75 83.875 C23.84507812 84.67550781 23.84507812 84.67550781 22.921875 85.4921875 C18.73392102 88.77785871 15.43019005 89.44103234 10.1875 89.3203125 C6.87333877 88.8350246 5.22797468 87.43051784 3 85 C-0.63921733 79.18753982 0.26929125 71.50092738 1.6171875 65.04296875 C3.73775883 58.18395264 6.91984399 51.84658929 10.26953125 45.51831055 C12.10021468 42.02682343 13.49297372 38.92756179 14 35 C8.22092233 37.49993809 5.64998098 42.4708041 2.375 47.5625 C1.76760986 48.4896582 1.16021973 49.41681641 0.53442383 50.37207031 C-4.46629568 58.05139628 -9.27149308 65.84692199 -13.98828125 73.703125 C-16 77 -16 77 -17 78 C-18.99958364 78.04080783 -21.00045254 78.04254356 -23 78 C-26.96721729 70.06556542 -23.47706157 56.61560787 -22.29101562 48.14990234 C-21.76622748 44.2729859 -21.32461885 40.38622461 -20.875 36.5 C-20.70579247 35.05207593 -20.53652755 33.60415857 -20.3671875 32.15625 C-20.18542969 30.59390625 -20.18542969 30.59390625 -20 29 C-23.05714133 31.78965157 -24.81663194 34.23591161 -26.4453125 38.03125 C-27.07808105 39.48724609 -27.07808105 39.48724609 -27.72363281 40.97265625 C-28.14483398 41.97167969 -28.56603516 42.97070312 -29 44 C-29.4031543 44.94746094 -29.80630859 45.89492188 -30.22167969 46.87109375 C-31.02956767 48.7755411 -31.83530064 50.68090401 -32.63891602 52.5871582 C-39.58219156 68.94904256 -47.83695289 86.24036388 -64.75 94.3125 C-73.4862906 96.16056147 -81.15092768 95.36533551 -89 91 C-96.11754356 85.1202901 -99.49265001 78.2426166 -100.375 69.125 C-100.09381222 60.55704293 -95.04015441 53.6927119 -89 48 C-83.47300764 43.7889582 -76.64729409 44.27041894 -70 45 C-65.74357901 46.22933898 -62.98682467 47.67811393 -60.3203125 51.25 C-57.89641927 56.29858236 -58.29589142 61.5382232 -59 67 C-60.54987321 71.17126371 -62.54315561 74.02877041 -66.25 76.5 C-70.66536844 77.30279426 -75.88768719 78.05615641 -80 76 C-80.125 73.125 -80.125 73.125 -80 70 C-77.34884159 67.34884159 -75.48610041 67.60927209 -71.875 67.34375 C-69.76097714 67.13964634 -69.76097714 67.13964634 -68 65 C-67.75684344 62.33050591 -67.75684344 62.33050591 -67.875 59.375 C-67.89304688 58.37210937 -67.91109375 57.36921875 -67.9296875 56.3359375 C-67.95289063 55.56507813 -67.97609375 54.79421875 -68 54 C-73.4057049 52.19809837 -77.50062284 52.39008387 -82.6875 54.5 C-86.72189651 57.13716286 -89.21791371 60.54478428 -91 65 C-92.10448315 70.55148108 -91.1165765 75.38142918 -88.31640625 80.26953125 C-85.45138364 84.03571824 -82.27972823 85.63765909 -77.640625 86.375 C-70.23723012 86.74287055 -64.58198706 84.88745456 -58.82421875 80.24609375 C-47.553028 69.05498251 -41.4977156 52.80437188 -36.00341797 38.20556641 C-33.18250013 30.93912596 -29.33689718 24.6393381 -25.00390625 18.1875 C-23.31467143 15.50053 -22.62080307 13.98309017 -22 11 C-28.55954849 9.41324097 -35.02097077 8.74244788 -41.75 8.625 C-42.45825928 8.59921875 -43.16651855 8.5734375 -43.89624023 8.546875 C-49.35078403 8.52646749 -52.48862022 9.93566656 -57 13 C-60.48013318 16.81692026 -60.35281797 20.66314337 -60.3984375 25.59765625 C-59.91393117 28.51894443 -59.07174034 29.89961808 -57 32 C-52.38975401 32.6238553 -52.38975401 32.6238553 -48.2890625 30.79296875 C-46.54961951 28.37356169 -46.72905654 26.81962393 -46.875 23.875 C-46.94560869 22.25100015 -46.99417375 20.62552366 -47 19 C-46.505 18.505 -46.505 18.505 -46 18 C-43.66055264 18.28730055 -41.3260857 18.61936779 -39 19 C-37.64406769 23.06779694 -37.46924415 26.74668259 -38 31 C-40.65358498 36.11762818 -43.53117826 39.17705942 -49 41 C-55.53422335 41.77245664 -59.71121222 40.94066541 -65 37 C-70.3166967 30.41879165 -69.85296215 24.12091049 -69 16 C-67.54172294 10.58614642 -63.55194507 7.48068816 -59.1953125 4.26171875 C-53.40042224 0.93120353 -48.1265146 0.71538618 -41.625 0.8125 C-40.40683594 0.8134668 -40.40683594 0.8134668 -39.1640625 0.81445312 C-35.34108489 0.84202268 -31.6076494 0.99556225 -27.81640625 1.5 C-24.27378344 1.96413073 -20.88213081 2.16597026 -17.3125 2.1875 C-15.69794922 2.20876953 -15.69794922 2.20876953 -14.05078125 2.23046875 C-8.96894382 1.84656554 -5.27100541 -0.35938673 0 0 Z " fill="#F69801" transform="translate(268,451)"/>
<path d="M0 0 C0.50660156 0.45375 1.01320313 0.9075 1.53515625 1.375 C1.53515625 2.035 1.53515625 2.695 1.53515625 3.375 C2.128125 3.64054687 2.72109375 3.90609375 3.33203125 4.1796875 C12.51091459 9.15971995 18.08432711 21.80275739 21.17773438 31.36035156 C25.92467376 48.6577783 23.85209251 65.62427089 15.43359375 81.45703125 C5.05893874 97.40326025 -8.60338194 106.31000225 -26.796875 110.97265625 C-42.97314379 113.41212285 -59.10940014 111.07360583 -72.76953125 101.8125 C-75.08547224 100.08155449 -77.28141138 98.27012704 -79.46484375 96.375 C-80.21765625 95.72917969 -80.97046875 95.08335937 -81.74609375 94.41796875 C-90.70898208 86.14571394 -96.87988497 75.31708228 -99.46484375 63.375 C-99.64660156 62.63378906 -99.82835937 61.89257812 -100.015625 61.12890625 C-102.79289785 44.10301619 -99.48270184 28.19989863 -89.8359375 13.97265625 C-79.63872467 0.13189174 -65.30259533 -8.77130026 -48.453125 -12.24609375 C-30.5753141 -14.51295343 -14.86209025 -9.79814507 0 0 Z " fill="#FF9F05" transform="translate(462.46484375,288.625)"/>
<path d="M0 0 C1.49402649 -0.00701996 1.49402649 -0.00701996 3.01823533 -0.01418173 C6.34758994 -0.02612429 9.67653239 -0.01667709 13.00588989 -0.00723267 C15.3962325 -0.01129873 17.78657323 -0.01664081 20.1769104 -0.02316284 C25.99100914 -0.03541954 31.80497746 -0.03362909 37.61908017 -0.02492492 C42.34663 -0.01814138 47.07414729 -0.01723455 51.80170059 -0.02049637 C52.8121624 -0.02118592 52.8121624 -0.02118592 53.84303758 -0.0218894 C55.21168327 -0.02284861 56.58032895 -0.02382125 57.94897462 -0.02480717 C70.77581747 -0.03335688 83.60259595 -0.02353421 96.42942823 -0.00740607 C107.42402324 0.00599064 118.41852318 0.00367357 129.41311646 -0.01016235 C142.1919108 -0.02623613 154.97064871 -0.03252653 167.74945176 -0.02332556 C169.1135884 -0.02236996 170.47772506 -0.02142684 171.84186172 -0.02049637 C172.51297331 -0.02003354 173.18408489 -0.01957072 173.87553319 -0.01909386 C178.59376198 -0.0165089 183.31195484 -0.02086442 188.03017807 -0.02793503 C194.38809462 -0.03661247 200.74583202 -0.03056827 207.10372925 -0.01325226 C209.43493477 -0.00929128 211.76615542 -0.01041478 214.09735489 -0.01704025 C217.28418113 -0.02526114 220.4704365 -0.01492696 223.65722656 0 C224.57562754 -0.00669217 225.49402851 -0.01338433 226.44025981 -0.02027929 C235.83272794 0.0648107 244.23465639 2.56877591 250.95559692 9.38095093 C254.27017453 14.43903467 256.08828558 19.42581356 256.05325317 25.48641968 C256.05003052 26.46932983 256.04680786 27.45223999 256.04348755 28.4649353 C256.03510864 29.48909546 256.02672974 30.51325562 256.01809692 31.56845093 C256.01358521 32.60421265 256.00907349 33.63997437 256.00442505 34.7071228 C255.99263703 37.26512359 255.97618208 39.82300826 255.95559692 42.38095093 C246.42823835 42.5202101 236.90123216 42.62670225 227.37307644 42.69182396 C222.94831227 42.72308564 218.52424636 42.76546231 214.09988403 42.83358765 C209.826922 42.89896709 205.55462989 42.93469579 201.28120613 42.95021439 C199.65409872 42.96126767 198.0270264 42.98285309 196.40020561 43.01533127 C182.04494834 43.2904233 182.04494834 43.2904233 177.63626099 39.48373413 C177.18245056 38.95802322 176.72864014 38.43231232 176.26107788 37.89067078 C173.87275551 35.12870197 170.50999516 33.76460709 167.26809692 32.19345093 C166.56531616 31.8524939 165.8625354 31.51153687 165.13845825 31.1602478 C148.22795337 23.19511306 129.47793295 23.12428435 111.95559692 29.38095093 C104.16166355 32.69774959 104.16166355 32.69774959 97.58181763 37.86587524 C94.0160853 41.63176033 91.3051316 42.80607856 86.11209106 43.06210327 C83.82142541 43.06116007 81.53061284 43.02765624 79.24075317 42.96688843 C77.42443642 42.9541539 77.42443642 42.9541539 75.57142639 42.94116211 C71.71939609 42.90768471 67.8694902 42.83240658 64.01809692 42.75595093 C61.4002887 42.72584443 58.78244753 42.69846985 56.1645813 42.67391968 C49.76086666 42.60791134 43.35838359 42.50761555 36.95559692 42.38095093 C36.78471558 41.05269287 36.78471558 41.05269287 36.61038208 39.69760132 C36.4484436 38.53220825 36.28650513 37.36681519 36.11965942 36.16610718 C35.96448853 35.01247681 35.80931763 33.85884644 35.64944458 32.67025757 C34.45697514 27.01714681 31.69331244 23.44304995 27.13528442 20.00985718 C21.9854608 16.99710611 16.80046048 16.36866281 10.95559692 17.38095093 C2.3674998 20.28066763 -1.04287468 24.37789413 -5.04440308 32.38095093 C-5.37440308 35.68095093 -5.70440308 38.98095093 -6.04440308 42.38095093 C-13.96440308 42.38095093 -21.88440308 42.38095093 -30.04440308 42.38095093 C-30.14752808 38.79220093 -30.25065308 35.20345093 -30.35690308 31.50595093 C-30.4024231 30.39622925 -30.44794312 29.28650757 -30.49484253 28.14315796 C-30.59444278 20.89354477 -29.22553345 15.38123978 -25.04440308 9.38095093 C-17.58130838 2.20063934 -10.11941775 -0.07338127 0 0 Z " fill="#1F2029" transform="translate(287.0444030761719,246.61904907226563)"/>
<path d="M0 0 C15.02071199 -0.1621507 30.04129132 -0.28701632 45.06269264 -0.3626852 C52.03770394 -0.39875625 59.01216094 -0.44791851 65.98681641 -0.52807617 C72.71716307 -0.60538909 79.44681484 -0.64598424 86.17762375 -0.6641407 C88.74613894 -0.6770803 91.31462242 -0.70234858 93.88289261 -0.7401104 C97.47942589 -0.79089048 101.07357638 -0.79792481 104.67041016 -0.79467773 C105.73352417 -0.81984467 106.79663818 -0.8450116 107.89196777 -0.87094116 C115.00329741 -0.80141912 115.00329741 -0.80141912 117.96082687 1.57664299 C119.58309937 3.48716736 119.58309937 3.48716736 120.89049339 5.39903164 C121.9219122 7.1611266 121.9219122 7.1611266 124 8 C124 8.66 124 9.32 124 10 C107.83 10.33 91.66 10.66 75 11 C75 12.32 75 13.64 75 15 C75.70220169 14.98889694 76.40440338 14.97779388 77.12788391 14.96635437 C83.7907466 14.86558797 90.45339236 14.78975187 97.11684895 14.74093914 C100.54153124 14.7149987 103.96557669 14.67989352 107.38989258 14.62280273 C111.33927415 14.55738052 115.28841046 14.53369089 119.23828125 14.51171875 C120.45018631 14.48591232 121.66209137 14.4601059 122.91072083 14.43351746 C130.03811064 14.43119778 135.21931238 15.4170955 141.55265808 18.74641418 C155.49090023 25.88590806 173.95941297 24.5894694 188.578125 20.265625 C191.77705621 19.20511327 191.77705621 19.20511327 193.62602234 18.01513672 C201.78297155 13.3844048 211.18771358 14.50274436 220.25390625 14.609375 C222.12433769 14.61684525 223.99477702 14.62253447 225.86521912 14.62652588 C230.76276666 14.64172056 235.65983165 14.68094852 240.55718994 14.7253418 C245.56475296 14.76642824 250.57239475 14.78456534 255.58007812 14.8046875 C265.38692952 14.84744931 275.19342446 14.91562508 285 15 C284.01658028 23.16624025 281.01833652 27.37720099 274.9765625 32.703125 C269.29783617 36.42908773 263.41523064 36.28882615 256.87930298 36.26742554 C255.86301642 36.27195665 254.84672986 36.27648776 253.79964674 36.28115618 C250.39584451 36.29381169 246.99220205 36.29217905 243.58837891 36.29052734 C241.14730117 36.29651182 238.70622533 36.30331718 236.26515198 36.31088257 C230.32361694 36.32672118 224.38211934 36.33299125 218.44056751 36.33410732 C213.61001428 36.33505859 208.77947411 36.33917281 203.94892502 36.34550858 C190.24584801 36.36311516 176.54280229 36.37234825 162.83971389 36.37084763 C162.10144619 36.37076772 161.3631785 36.3706878 160.60253906 36.37060547 C159.49378168 36.37048283 159.49378168 36.37048283 158.36262517 36.37035771 C146.38265033 36.36954476 134.4028012 36.38868616 122.42286272 36.4168822 C110.11453011 36.44562204 97.8062588 36.45942192 85.49789178 36.45769465 C78.59061838 36.45703117 71.68347681 36.46250493 64.77623367 36.48405075 C58.28044604 36.50418374 51.78486485 36.50357761 45.28906059 36.48901749 C42.90582689 36.4869247 40.52257588 36.49165813 38.13937187 36.5037384 C34.88414144 36.5191695 31.62987394 36.50989593 28.37466431 36.49447632 C27.43321363 36.50476344 26.49176296 36.51505057 25.52178347 36.52564943 C18.42568201 36.45144807 13.10270309 34.76756791 7.7578125 30 C7.21898437 29.34 6.68015625 28.68 6.125 28 C5.57070313 27.34 5.01640625 26.68 4.4453125 26 C1.49702026 21.92020101 1 20.28498169 1 15 C7.27 14.67 13.54 14.34 20 14 C20 13.01 20 12.02 20 11 C13.4 10.67 6.8 10.34 0 10 C0 6.7 0 3.4 0 0 Z " fill="#23242D" transform="translate(257,381)"/>
<path d="M0 0 C0.50660156 0.45375 1.01320313 0.9075 1.53515625 1.375 C1.53515625 2.035 1.53515625 2.695 1.53515625 3.375 C2.128125 3.64054687 2.72109375 3.90609375 3.33203125 4.1796875 C12.51091459 9.15971995 18.08432711 21.80275739 21.17773438 31.36035156 C25.92467376 48.6577783 23.85209251 65.62427089 15.43359375 81.45703125 C5.05893874 97.40326025 -8.60338194 106.31000225 -26.796875 110.97265625 C-42.97314379 113.41212285 -59.10940014 111.07360583 -72.76953125 101.8125 C-75.08547224 100.08155449 -77.28141138 98.27012704 -79.46484375 96.375 C-80.21765625 95.72917969 -80.97046875 95.08335937 -81.74609375 94.41796875 C-90.70898208 86.14571394 -96.87988497 75.31708228 -99.46484375 63.375 C-99.64660156 62.63378906 -99.82835937 61.89257812 -100.015625 61.12890625 C-102.79289785 44.10301619 -99.48270184 28.19989863 -89.8359375 13.97265625 C-79.63872467 0.13189174 -65.30259533 -8.77130026 -48.453125 -12.24609375 C-30.5753141 -14.51295343 -14.86209025 -9.79814507 0 0 Z M-78.27734375 18.44921875 C-88.26832304 31.1627399 -89.70533232 44.64250373 -88.46484375 60.375 C-86.9786725 68.42227953 -83.47375734 74.97472152 -78.46484375 81.375 C-77.86671875 82.1484375 -77.26859375 82.921875 -76.65234375 83.71875 C-68.79140914 93.22794509 -58.69691287 98.54755139 -46.46484375 100.375 C-29.4105594 101.92734499 -17.52639861 99.01154844 -4.27734375 88 C4.48673047 80.07225891 10.66838881 69.8581201 11.7578125 57.93896484 C12.21498764 47.63873014 12.54383396 37.66802356 7.53515625 28.375 C7.06464844 27.48425781 6.59414063 26.59351563 6.109375 25.67578125 C3.42429921 20.92312772 0.65674535 17.00592373 -3.46484375 13.375 C-4.026875 12.82199219 -4.58890625 12.26898438 -5.16796875 11.69921875 C-13.49861685 3.79187594 -24.17608918 -0.51570658 -35.65234375 -0.875 C-53.44327211 -0.31709632 -66.44409114 4.90728526 -78.27734375 18.44921875 Z " fill="#23242C" transform="translate(462.46484375,288.625)"/>
<path d="M0 0 C0.65550339 -0.00817749 1.31100677 -0.01635498 1.9863739 -0.02478027 C4.15911953 -0.04962453 6.33179986 -0.06614802 8.50463867 -0.08056641 C9.24677801 -0.08589008 9.98891735 -0.09121376 10.75354576 -0.09669876 C14.68204084 -0.12342673 18.61050418 -0.1428023 22.5390625 -0.15722656 C26.59467449 -0.17386997 30.64947313 -0.21864478 34.70477772 -0.26959801 C37.82493511 -0.30327254 40.94489952 -0.31480411 44.06522179 -0.32045364 C45.55996603 -0.32716614 47.05469757 -0.3423885 48.54926491 -0.36634445 C50.64419212 -0.39800619 52.7369271 -0.39803322 54.83203125 -0.390625 C56.61834709 -0.40275528 56.61834709 -0.40275528 58.44075012 -0.41513062 C62.55289951 0.37373401 64.03545337 1.95975267 66.61010742 5.19287109 C67.2253418 8.26733398 67.2253418 8.26733398 67.20385742 11.66552734 C67.2012793 12.89464844 67.19870117 14.12376953 67.19604492 15.39013672 C67.16768555 16.66566406 67.13932617 17.94119141 67.11010742 19.25537109 C67.11397461 21.17446289 67.11397461 21.17446289 67.11791992 23.13232422 C67.00612964 33.78034877 67.00612964 33.78034877 63.61010742 37.19287109 C60.29428532 38.29814513 57.79927995 38.3332227 54.30615234 38.35400391 C52.35348701 38.36841522 52.35348701 38.36841522 50.3613739 38.38311768 C48.93777644 38.38796606 47.51417694 38.39224479 46.09057617 38.39599609 C44.62950133 38.40175032 43.1684265 38.40750802 41.70735168 38.41326904 C38.64327646 38.42377184 35.57922741 38.42961903 32.51513672 38.43310547 C28.59775641 38.43858475 24.68072463 38.46260335 20.76345348 38.49107742 C17.74448146 38.50974551 14.72559263 38.51491164 11.70656776 38.51644135 C10.26293345 38.51945967 8.81930032 38.52746045 7.37572289 38.54062653 C5.35130114 38.55777025 3.32673513 38.55394998 1.30224609 38.54931641 C-0.42291985 38.55478485 -0.42291985 38.55478485 -2.18293762 38.56036377 C-5.83987674 38.14130633 -8.25438203 37.09336036 -11.38989258 35.19287109 C-13.6736844 30.62528744 -12.66511863 24.33245986 -12.70239258 19.31787109 C-12.73139648 18.02494141 -12.76040039 16.73201172 -12.7902832 15.39990234 C-12.79866211 14.15853516 -12.80704102 12.91716797 -12.81567383 11.63818359 C-12.83025635 10.49881348 -12.84483887 9.35944336 -12.85986328 8.18554688 C-12.28972345 4.55501491 -11.23055602 3.4396227 -8.38989258 1.19287109 C-5.56225273 -0.22094883 -3.16217739 0.03421728 0 0 Z " fill="#24252D" transform="translate(694.389892578125,723.80712890625)"/>
<path d="M0 0 C0.76183594 0.50402344 1.52367187 1.00804687 2.30859375 1.52734375 C12.23342311 8.64041707 19.45554204 20.0021549 22 32 C22.2441572 35.39267532 22.2310946 38.78689096 22.25 42.1875 C22.270625 43.09564453 22.29125 44.00378906 22.3125 44.93945312 C22.34826977 51.1857494 21.36557325 56.22727339 19 62 C18.63519531 62.9075 18.27039063 63.815 17.89453125 64.75 C12.33416396 76.3123522 2.90206071 85.62627654 -8.875 90.9375 C-23.05706452 95.75940194 -39.2756133 93.77150825 -52.73046875 87.78515625 C-65.05891626 81.19087037 -72.59343512 69.67934298 -77.1328125 56.78125 C-79.75062724 45.36663438 -79.61954577 31.42573624 -74 21 C-73.649375 20.31421875 -73.29875 19.6284375 -72.9375 18.921875 C-67.46122171 9.26232857 -59.83646062 2.01987895 -50 -3 C-49.05125 -3.52335937 -48.1025 -4.04671875 -47.125 -4.5859375 C-32.23029176 -11.32579298 -13.34362381 -8.88767684 0 0 Z M-43 3 C-40.28542307 11.44535046 -37.13726237 19.70368396 -34 28 C-37.3 20.41 -40.6 12.82 -44 5 C-50.05006442 4.8509511 -50.05006442 4.8509511 -54.375 7.875 C-55.06335938 8.40867187 -55.75171875 8.94234375 -56.4609375 9.4921875 C-56.96882813 9.98976563 -57.47671875 10.48734375 -58 11 C-58 11.66 -58 12.32 -58 13 C-58.5775 13.20625 -59.155 13.4125 -59.75 13.625 C-62.90583178 15.55356387 -64.23314155 17.78179353 -66 21 C-66 22.65 -66 24.3 -66 26 C-59.4 28.97 -52.8 31.94 -46 35 C-54.25 32.0625 -54.25 32.0625 -56.82910156 31.14086914 C-57.5094043 30.89973389 -58.18970703 30.65859863 -58.890625 30.41015625 C-59.58188477 30.16402588 -60.27314453 29.91789551 -60.98535156 29.66430664 C-62.99040715 29.00316313 -64.92249481 28.38383911 -67 28 C-69.18581473 29.45720982 -69.87805303 30.55173974 -70.56640625 33.08203125 C-71.13698985 36.92190468 -71.22337487 40.68521503 -71.25 44.5625 C-71.270625 45.31724609 -71.29125 46.07199219 -71.3125 46.84960938 C-71.33656895 50.26439229 -71.26230941 52.56259229 -69.484375 55.52734375 C-68.99453125 56.01332031 -68.5046875 56.49929688 -68 57 C-60.98095574 55.63218625 -54.5832708 53.49261049 -47.9375 50.875 C-46.97650391 50.50246094 -46.01550781 50.12992187 -45.02539062 49.74609375 C-42.68129617 48.83644515 -40.33964819 47.92101046 -38 47 C-38.52843506 47.21615967 -39.05687012 47.43231934 -39.60131836 47.6550293 C-42.0491001 48.66014417 -44.49327275 49.67377358 -46.9375 50.6875 C-48.18370117 51.19700195 -48.18370117 51.19700195 -49.45507812 51.71679688 C-55.20494708 54.11071119 -60.62077802 56.86191722 -66 60 C-65.59862455 65.61925626 -63.82025541 68.08656763 -60 72 C-59.34 72 -58.68 72 -58 72 C-57.79375 72.556875 -57.5875 73.11375 -57.375 73.6875 C-55.42923508 76.95992282 -53.09592257 78.81464289 -50 81 C-48.35 81 -46.7 81 -45 81 C-42.69 76.05 -40.38 71.1 -38 66 C-38.474375 67.32 -38.94875 68.64 -39.4375 70 C-40.9025658 74.36064395 -41.58424927 78.42674201 -42 83 C-37.25844035 85.81228655 -33.34738658 86.4387812 -27.9375 86.3125 C-26.89625977 86.31733398 -26.89625977 86.31733398 -25.83398438 86.32226562 C-21.62790918 86.27832752 -17.14693022 86.14693022 -14 83 C-14.43542447 76.90405747 -15.93600432 71.74329234 -18 66 C-15.69 70.62 -13.38 75.24 -11 80 C-4.30939456 79.31163114 -4.30939456 79.31163114 0.125 75.75 C0.78886719 75.11449219 1.45273437 74.47898437 2.13671875 73.82421875 C2.75160156 73.22222656 3.36648438 72.62023437 4 72 C4.969375 71.195625 5.93875 70.39125 6.9375 69.5625 C9.77451809 66.49723833 9.77451809 66.49723833 10 59 C2.41 55.7 -5.18 52.4 -13 49 C-2.8125 53.0625 -2.8125 53.0625 0.37182617 54.35571289 C1.21205322 54.6830542 2.05228027 55.01039551 2.91796875 55.34765625 C3.77156982 55.68804932 4.6251709 56.02844238 5.50463867 56.37915039 C8.4043297 57.10059783 10.16864077 56.90835624 13 56 C15.82996172 51.69948415 15.33143134 46.40887008 15.3125 41.4375 C15.32861328 40.58736328 15.34472656 39.73722656 15.36132812 38.86132812 C15.38871022 33.90143675 15.38871022 33.90143675 13.48046875 29.41015625 C12.74763672 28.71212891 12.74763672 28.71212891 12 28 C1.95516186 30.32314539 -7.45925594 34.16900816 -17 38 C-16.46632813 37.78384033 -15.93265625 37.56768066 -15.3828125 37.3449707 C-12.91868618 36.34178779 -10.45939353 35.32722755 -8 34.3125 C-7.16082031 33.97283203 -6.32164062 33.63316406 -5.45703125 33.28320312 C0.05954463 30.99532088 5.04648167 28.33722543 10 25 C9.10455371 17.38870653 3.90908297 12.28398186 -1.734375 7.54296875 C-4.99977031 4.79783772 -4.99977031 4.79783772 -9.03125 4.03125 C-11.96846559 5.47654656 -12.5753652 7.43942972 -13.9375 10.375 C-14.44410156 11.45007813 -14.95070313 12.52515625 -15.47265625 13.6328125 C-15.97667969 14.74398438 -16.48070312 15.85515625 -17 17 C-17.49371094 18.06992187 -17.98742187 19.13984375 -18.49609375 20.2421875 C-19.67873086 22.82187751 -20.84650112 25.40717951 -22 28 C-21.04235345 25.43724147 -20.0839064 22.87478711 -19.125 20.3125 C-18.85558594 19.59126953 -18.58617187 18.87003906 -18.30859375 18.12695312 C-18.04433594 17.42119141 -17.78007812 16.71542969 -17.5078125 15.98828125 C-17.1219397 14.95562134 -17.1219397 14.95562134 -16.72827148 13.90209961 C-16.11653574 12.30436807 -15.45986127 10.7239441 -14.79296875 9.1484375 C-13.76287556 6.35754463 -14.02158472 4.7847204 -15 2 C-19.36038795 -0.9069253 -23.30948776 -0.32974281 -28.4375 -0.3125 C-29.39205078 -0.32861328 -30.34660156 -0.34472656 -31.33007812 -0.36132812 C-32.25111328 -0.36197266 -33.17214844 -0.36261719 -34.12109375 -0.36328125 C-35.38070923 -0.36775269 -35.38070923 -0.36775269 -36.66577148 -0.37231445 C-39.48037389 0.07662067 -40.87549132 1.14843699 -43 3 Z " fill="#FFF8EE" transform="translate(452,296)"/>
<path d="M0 0 C1.21558846 -0.00788544 1.21558846 -0.00788544 2.45573425 -0.01593018 C5.12701861 -0.02910306 7.79770401 -0.02040099 10.46899414 -0.01025391 C12.3307761 -0.01227562 14.19255729 -0.01518787 16.05433655 -0.01895142 C19.95394438 -0.02337126 23.85334587 -0.01695536 27.75292969 -0.00292969 C32.74418819 0.01415008 37.73496229 0.00432652 42.72620296 -0.01364708 C46.57043587 -0.02450423 50.41455456 -0.02102951 54.25879097 -0.0132637 C56.09874085 -0.01126642 57.93870119 -0.01370437 59.77863884 -0.02070236 C62.354006 -0.02834732 64.9285967 -0.01666981 67.50390625 0 C68.25994141 -0.00607269 69.01597656 -0.01214539 69.79492188 -0.0184021 C74.55553691 0.03849485 77.82488816 0.77388416 81.81665039 3.38818359 C85.81665039 8.38818359 85.81665039 8.38818359 93.81665039 22.38818359 C54.54665039 22.38818359 15.27665039 22.38818359 -25.18334961 22.38818359 C-12.33364307 -0.09880285 -12.33364307 -0.09880285 0 0 Z " fill="#1E1E27" transform="translate(405.183349609375,219.61181640625)"/>
<path d="M0 0 C0.81959198 -0.00014603 1.63918396 -0.00029205 2.48361206 -0.0004425 C5.19987612 0.00025565 7.9160721 0.00804351 10.63232422 0.01586914 C12.51276614 0.01773367 14.39320854 0.01915741 16.27365112 0.02015686 C21.22863094 0.02397932 26.18358155 0.03380731 31.1385498 0.04486084 C36.19246017 0.05508078 41.24637525 0.05965573 46.30029297 0.06469727 C56.22087873 0.0754298 66.1414428 0.09250299 76.06201172 0.11352539 C75.078592 8.27976564 72.08034824 12.49072638 66.03857422 17.81665039 C61.13232219 21.03577228 56.23878286 21.35991183 50.49609375 21.34057617 C49.7636998 21.34086823 49.03130585 21.34116028 48.27671814 21.34146118 C45.87429643 21.34007633 43.47219124 21.32455536 41.06982422 21.30883789 C39.39688283 21.30510475 37.72393924 21.3022592 36.05099487 21.30026245 C31.661559 21.29264969 27.27225682 21.27302158 22.88287354 21.25085449 C18.39833382 21.23034515 13.91377238 21.22124988 9.42919922 21.21118164 C0.64007557 21.18977335 -8.14893969 21.15566604 -16.93798828 21.11352539 C-16.93798828 20.45352539 -16.93798828 19.79352539 -16.93798828 19.11352539 C-17.59798828 19.11352539 -18.25798828 19.11352539 -18.93798828 19.11352539 C-20.44580078 17.50415039 -20.44580078 17.50415039 -22.06298828 15.36352539 C-22.60181641 14.66743164 -23.14064453 13.97133789 -23.69580078 13.25415039 C-24.93798828 11.11352539 -24.93798828 11.11352539 -24.93798828 7.11352539 C-23.87837891 6.69200195 -22.81876953 6.27047852 -21.72705078 5.83618164 C-20.33901179 5.28284177 -18.95099195 4.72945386 -17.56298828 4.17602539 C-16.86431641 3.89823242 -16.16564453 3.62043945 -15.44580078 3.33422852 C-9.8164049 1.08788304 -6.0650052 -0.02801769 0 0 Z " fill="#201F27" transform="translate(465.93798828125,395.886474609375)"/>
<path d="M0 0 C4.81598916 2.63516388 8.19728677 5.71548839 10.3125 10.8125 C11.18004296 16.74407277 10.55742827 21.89349824 7.58984375 27.12109375 C4.88617665 30.70117893 1.47760472 32.42413176 -2.6875 33.8125 C-9.5190254 34.5410368 -14.21415065 34.08171249 -19.6875 29.8125 C-21.34699596 27.54081193 -22.45529835 25.37168805 -23.6875 22.8125 C-24.0175 22.1525 -24.3475 21.4925 -24.6875 20.8125 C-25.22499296 15.91338383 -25.25424874 11.9677955 -23.0625 7.5 C-16.41119751 -0.02647386 -9.94663897 -3.20315492 0 0 Z " fill="#1D202A" transform="translate(309.6875,268.1875)"/>
<path d="M0 0 C1.98 0.33 3.96 0.66 6 1 C7.43835183 5.59591709 6.46044669 7.9708847 4.4375 12.25 C2.02501124 17.52648272 -0.06444701 22.82171028 -1.9375 28.3125 C-12.23143345 57.93886007 -12.23143345 57.93886007 -21.5 63.5 C-24.82575385 64.16515077 -27.6193959 64.37562268 -31 64 C-33.74785674 61.7839865 -33.96463214 60.22989106 -34.5 56.75 C-33.40475026 48.53562694 -27.62389667 43.34465391 -21.625 38.125 C-9.95260264 27.56969305 -2.29824843 15.81332128 0 0 Z " fill="#261F21" transform="translate(535,466)"/>
<path d="M0 0 C0.76183594 0.50402344 1.52367187 1.00804687 2.30859375 1.52734375 C12.23342311 8.64041707 19.45554204 20.0021549 22 32 C22.2441572 35.39267532 22.2310946 38.78689096 22.25 42.1875 C22.270625 43.09564453 22.29125 44.00378906 22.3125 44.93945312 C22.34826977 51.1857494 21.36557325 56.22727339 19 62 C18.63519531 62.9075 18.27039063 63.815 17.89453125 64.75 C12.33416396 76.3123522 2.90206071 85.62627654 -8.875 90.9375 C-23.05706452 95.75940194 -39.2756133 93.77150825 -52.73046875 87.78515625 C-65.05891626 81.19087037 -72.59343512 69.67934298 -77.1328125 56.78125 C-79.75062724 45.36663438 -79.61954577 31.42573624 -74 21 C-73.649375 20.31421875 -73.29875 19.6284375 -72.9375 18.921875 C-67.46122171 9.26232857 -59.83646062 2.01987895 -50 -3 C-49.05125 -3.52335937 -48.1025 -4.04671875 -47.125 -4.5859375 C-32.23029176 -11.32579298 -13.34362381 -8.88767684 0 0 Z M-64.4765625 10.05078125 C-74.32231601 22.64829663 -77.18554964 35.28699014 -76 51 C-74.11255308 63.20730055 -66.95638127 74.77549459 -57 82.125 C-45.21830255 89.44477134 -31.46339869 93.17678271 -17.6953125 90.3125 C-4.52610315 86.59413501 5.86279356 79.84081816 13.25 68.1875 C14.19694178 66.47472552 15.11428589 64.74522367 16 63 C16.41507812 62.20335937 16.83015625 61.40671875 17.2578125 60.5859375 C21.83300516 50.25176107 21.638255 37.00921404 18.3125 26.3125 C16.46758048 21.64439402 14.30961559 16.8274466 11 13 C10.34 13 9.68 13 9 13 C8.62488281 12.11441406 8.62488281 12.11441406 8.2421875 11.2109375 C3.58873041 2.92836922 -8.37872097 -2.12624032 -17 -5 C-20.55796253 -5.25672409 -24.12125033 -5.23138943 -27.6875 -5.25 C-28.65623047 -5.270625 -29.62496094 -5.29125 -30.62304688 -5.3125 C-43.38816229 -5.38154728 -55.7773652 0.60896955 -64.4765625 10.05078125 Z " fill="#F49909" transform="translate(452,296)"/>
<path d="M0 0 C1.82867363 0.01332367 1.82867363 0.01332367 3.69429016 0.0269165 C4.70444183 0.02604034 4.70444183 0.02604034 5.73500061 0.02514648 C7.95934226 0.02793168 10.18234109 0.05904093 12.40644836 0.09039307 C13.94915027 0.09785399 15.49186165 0.10354763 17.03457642 0.10754395 C21.0938181 0.12281223 25.15248672 0.16210362 29.21150208 0.20635986 C33.35387927 0.24728724 37.49634911 0.2655495 41.63887024 0.28570557 C49.76608626 0.32859735 57.89283664 0.39686237 66.01972961 0.48101807 C66.01972961 3.45101807 66.01972961 6.42101807 66.01972961 9.48101807 C40.60972961 9.48101807 15.19972961 9.48101807 -10.98027039 9.48101807 C-9.33027039 7.83101807 -7.68027039 6.18101807 -5.98027039 4.48101807 C-5.5198082 3.72725891 -5.05934601 2.97349976 -4.58493042 2.19689941 C-2.98027039 0.48101807 -2.98027039 0.48101807 0 0 Z " fill="#25262F" transform="translate(476.9802703857422,381.51898193359375)"/>
<path d="M0 0 C1.7315332 -0.0309375 1.7315332 -0.0309375 3.49804688 -0.0625 C4.60857422 -0.06765625 5.71910156 -0.0728125 6.86328125 -0.078125 C7.88333252 -0.0874707 8.90338379 -0.09681641 9.9543457 -0.10644531 C13.07672133 0.30076044 14.41922725 1.10841882 16.6875 3.25 C18.18328697 6.74016959 18.02055168 10.51982115 17.6875 14.25 C15.82041495 16.61497439 14.36688569 17.91030715 11.6875 19.25 C8.08928538 19.51752525 4.4820459 19.48158496 0.875 19.5 C-0.12337891 19.520625 -1.12175781 19.54125 -2.15039062 19.5625 C-11.56484366 19.61267696 -11.56484366 19.61267696 -15.3125 16.25 C-16.50461438 12.67365687 -16.57176574 10.00935317 -16.3125 6.25 C-12.42850626 -1.51798749 -8.12131948 0.03591518 0 0 Z " fill="#202028" transform="translate(501.3125,258.75)"/>
<path d="M0 0 C3.1359157 1.77984405 3.84102736 2.52308207 5 6 C5.03954234 8.33299825 5.04401732 10.66708189 5 13 C3.5459375 13.680625 3.5459375 13.680625 2.0625 14.375 C-1.07079582 15.65786221 -1.07079582 15.65786221 -2 18 C-2.07696798 19.7702635 -2.13716761 21.54127907 -2.1875 23.3125 C-2.51356008 27.07701179 -2.74311885 29.55099763 -5.5625 32.1875 C-10.00993923 34.53251341 -12.03498032 34.72072866 -17 34 C-19.5 32.6875 -19.5 32.6875 -21 30 C-22.68854999 21.30544874 -19.80745737 14.18500164 -15 7 C-10.48272024 2.08056075 -6.76769563 -0.54141565 0 0 Z " fill="#161419" transform="translate(325,499)"/>
<path d="M0 0 C1.1653125 0.00515625 2.330625 0.0103125 3.53125 0.015625 C4.6965625 0.01046875 5.861875 0.0053125 7.0625 0 C10.03125 0.265625 10.03125 0.265625 12.03125 2.265625 C12.29003906 4.93945312 12.29003906 4.93945312 12.296875 8.296875 C12.30074219 10.10091797 12.30074219 10.10091797 12.3046875 11.94140625 C12.29695312 13.20339844 12.28921875 14.46539063 12.28125 15.765625 C12.28898438 17.02761719 12.29671875 18.28960938 12.3046875 19.58984375 C12.30210937 20.79253906 12.29953125 21.99523437 12.296875 23.234375 C12.29461914 24.34232422 12.29236328 25.45027344 12.29003906 26.59179688 C12.03125 29.265625 12.03125 29.265625 10.03125 31.265625 C7.0625 31.56640625 7.0625 31.56640625 3.53125 31.578125 C1.78328125 31.60326172 1.78328125 31.60326172 0 31.62890625 C-0.9796875 31.50902344 -1.959375 31.38914062 -2.96875 31.265625 C-5.2760577 27.80466344 -5.22569718 26.43621403 -5.234375 22.35546875 C-5.23824219 20.62393555 -5.23824219 20.62393555 -5.2421875 18.85742188 C-5.23445312 17.65150391 -5.22671875 16.44558594 -5.21875 15.203125 C-5.22648438 13.99333984 -5.23421875 12.78355469 -5.2421875 11.53710938 C-5.23960937 10.38404297 -5.23703125 9.23097656 -5.234375 8.04296875 C-5.23211914 6.98327881 -5.22986328 5.92358887 -5.22753906 4.83178711 C-4.83911926 0.98020169 -3.7963237 0.33967107 0 0 Z " fill="#EFEFF0" transform="translate(625.96875,553.734375)"/>
<path d="M0 0 C5.28 0 10.56 0 16 0 C18.11785351 4.23570701 17.27378231 9.78363343 17.3125 14.4375 C17.34150391 15.59572266 17.37050781 16.75394531 17.40039062 17.94726562 C17.40876953 19.05650391 17.41714844 20.16574219 17.42578125 21.30859375 C17.44036377 22.32751709 17.45494629 23.34644043 17.4699707 24.39624023 C17 27 17 27 13 30 C8.71 30 4.42 30 0 30 C0 20.1 0 10.2 0 0 Z " fill="#F5F5F6" transform="translate(589,555)"/>
<path d="M0 0 C1.69189453 -0.02416992 1.69189453 -0.02416992 3.41796875 -0.04882812 C5.05185547 -0.04979492 5.05185547 -0.04979492 6.71875 -0.05078125 C7.70810547 -0.05376221 8.69746094 -0.05674316 9.71679688 -0.05981445 C12.9993957 0.37930513 14.8439447 1.3591306 17.5 3.3125 C20.89269261 8.40153891 20.18044463 14.37902281 19.5 20.3125 C18.15744355 23.24546947 17.06550758 24.22429616 14.5 26.3125 C9.6736433 27.92128557 4.74187181 27.53864456 -0.3125 27.5625 C-1.93381836 27.5934375 -1.93381836 27.5934375 -3.58789062 27.625 C-13.68447323 27.6745842 -13.68447323 27.6745842 -18.5 24.3125 C-22.07787441 19.42273831 -22.35457855 14.1616154 -21.5 8.3125 C-19.80659011 4.80024245 -18.72037633 2.92046977 -15.21679688 1.17504883 C-10.257714 -0.39939759 -5.1604253 -0.01474407 0 0 Z M-15.29101562 5.64770508 C-17.954786 9.31576852 -17.7298756 12.94486367 -17.5 17.3125 C-16.64579789 19.94628984 -16.09015843 20.94774022 -13.73828125 22.40136719 C-11.15087325 23.45461835 -9.22597748 23.5709382 -6.4375 23.578125 C-4.99503906 23.58199219 -4.99503906 23.58199219 -3.5234375 23.5859375 C-2.02683594 23.57433594 -2.02683594 23.57433594 -0.5 23.5625 C0.49773437 23.57023437 1.49546875 23.57796875 2.5234375 23.5859375 C3.48507812 23.58335937 4.44671875 23.58078125 5.4375 23.578125 C6.31277344 23.57586914 7.18804687 23.57361328 8.08984375 23.57128906 C10.71646034 23.2892577 12.28838219 22.74431952 14.5 21.3125 C16.97717167 17.59674249 16.80345742 15.71263262 16.5 11.3125 C15.38441117 7.45084634 14.92754276 6.59752851 11.5 4.3125 C7.34745662 3.87178195 3.17336783 3.98834255 -1 4 C-2.73056641 3.97583008 -2.73056641 3.97583008 -4.49609375 3.95117188 C-6.15318359 3.95020508 -6.15318359 3.95020508 -7.84375 3.94921875 C-8.85630859 3.94623779 -9.86886719 3.94325684 -10.91210938 3.94018555 C-13.51917214 4.10507293 -13.51917214 4.10507293 -15.29101562 5.64770508 Z " fill="#ECECED" transform="translate(502.5,254.6875)"/>
<path d="M0 0 C22.44 0 44.88 0 68 0 C68 1.98 68 3.96 68 6 C59.72464951 6.13905414 51.44978742 6.24564595 43.17355728 6.31087303 C39.33045424 6.34218015 35.48815068 6.38463799 31.64550781 6.45263672 C27.93664456 6.51785696 24.22854986 6.55371071 20.51915741 6.56926346 C19.10446826 6.58034555 17.68982096 6.60198775 16.27545929 6.63438034 C14.29375784 6.67795913 12.311282 6.68045111 10.32910156 6.68115234 C9.20103088 6.69447601 8.07296021 6.70779968 6.91070557 6.7215271 C4 6 4 6 0 0 Z " fill="#100F16" transform="translate(475,294)"/>
<path d="M0 0 C1.32 0 2.64 0 4 0 C3.48594831 4.96916636 2.76615118 9.29026351 1 14 C1.66 14 2.32 14 3 14 C3 13.34 3 12.68 3 12 C3.66 12.33 4.32 12.66 5 13 C4.01 14.32 3.02 15.64 2 17 C0.865625 16.814375 -0.26875 16.62875 -1.4375 16.4375 C-2.613125 16.293125 -3.78875 16.14875 -5 16 C-5.33 16.33 -5.66 16.66 -6 17 C-9.06481021 17.1613058 -11.05549278 16.98150241 -14 16 C-15.7325 16.2475 -15.7325 16.2475 -17.5 16.5 C-21 17 -21 17 -24 16 C-26.00875442 16.27571139 -28.01178687 16.60235737 -30 17 C-29.67 13.37 -29.34 9.74 -29 6 C-27.35 5.67 -25.7 5.34 -24 5 C-24.48578543 8.12290635 -24.9986012 10.99580359 -26 14 C-25.01 13.67 -24.02 13.34 -23 13 C-21.89786379 10.27366306 -21 7.95855967 -21 5 C-20.34 5 -19.68 5 -19 5 C-18.67 3.68 -18.34 2.36 -18 1 C-16.68 1 -15.36 1 -14 1 C-14 2.32 -14 3.64 -14 5 C-12.68 5 -11.36 5 -10 5 C-9.67 3.68 -9.34 2.36 -9 1 C-7.68 1 -6.36 1 -5 1 C-5 2.32 -5 3.64 -5 5 C-4.34 5 -3.68 5 -3 5 C-3 5.66 -3 6.32 -3 7 C-4.32 7 -5.64 7 -7 7 C-7.33 9.31 -7.66 11.62 -8 14 C-6.01178757 13.42618305 -6.01178757 13.42618305 -4 12 C-2.64616437 9.14913674 -2.64616437 9.14913674 -1.75 5.875 C-1.24726562 4.23144531 -1.24726562 4.23144531 -0.734375 2.5546875 C-0.49203125 1.71164062 -0.2496875 0.86859375 0 0 Z " fill="#E2E2E3" transform="translate(745,734)"/>
<path d="M0 0 C4.875 1.875 4.875 1.875 6 3 C6.09823996 4.47648876 6.12973519 5.95775417 6.125 7.4375 C6.12886719 8.64212891 6.12886719 8.64212891 6.1328125 9.87109375 C6 12 6 12 5 14 C8.96 14 12.92 14 17 14 C17 12.02 17 10.04 17 8 C17.33 8 17.66 8 18 8 C18 9.98 18 11.96 18 14 C30.87 14 43.74 14 57 14 C57 14.33 57 14.66 57 15 C52.41039478 15.16841537 47.820604 15.3288849 43.23046875 15.48217773 C41.67082349 15.53536215 40.11124911 15.59067114 38.55175781 15.64819336 C36.3028898 15.73076674 34.05387293 15.80555406 31.8046875 15.87890625 C30.76838699 15.91945885 30.76838699 15.91945885 29.71115112 15.96083069 C25.6735017 16.0837296 21.95893641 15.79986674 18 15 C17.67 15.99 17.34 16.98 17 18 C17 17.01 17 16.02 17 15 C13.04 15 9.08 15 5 15 C4.59785771 21.16618181 6.03181664 26.17745757 8 32 C6.91015625 33.51171875 6.91015625 33.51171875 5 35 C1.93359375 35.14453125 1.93359375 35.14453125 -1.5625 34.8125 C-2.71878906 34.71582031 -3.87507812 34.61914062 -5.06640625 34.51953125 C-8 34 -8 34 -10 32 C-6.7 32 -3.4 32 0 32 C-0.33 26.39 -0.66 20.78 -1 15 C-22.78 15 -44.56 15 -67 15 C-67 14.67 -67 14.34 -67 14 C-45.22 14 -23.44 14 -1 14 C-1 10.37 -1 6.74 -1 3 C-0.67 2.01 -0.34 1.02 0 0 Z " fill="#232025" transform="translate(743,444)"/>
<path d="M0 0 C1.02029297 0.00515625 2.04058594 0.0103125 3.09179688 0.015625 C4.15076172 0.03625 5.20972656 0.056875 6.30078125 0.078125 C7.37134766 0.08328125 8.44191406 0.0884375 9.54492188 0.09375 C17.45920334 0.17404709 17.45920334 0.17404709 18.61328125 1.328125 C18.61328125 4.958125 18.61328125 8.588125 18.61328125 12.328125 C9.37328125 12.328125 0.13328125 12.328125 -9.38671875 12.328125 C-9.38671875 3.328125 -9.38671875 3.328125 -7.72338867 1.28613281 C-4.9752008 0.15940737 -2.96992237 -0.02964556 0 0 Z " fill="#24262F" transform="translate(301.38671875,229.671875)"/>
<path d="M0 0 C1.32 0 2.64 0 4 0 C4.33 8.25 4.66 16.5 5 25 C7.31 25.33 9.62 25.66 12 26 C12 17.42 12 8.84 12 0 C13.65 0.33 15.3 0.66 17 1 C17.02465746 5.1117256 17.04283959 9.22342278 17.05493164 13.33520508 C17.0599708 14.73495228 17.06680216 16.1346942 17.07543945 17.53442383 C17.0875232 19.54245777 17.09269807 21.55052957 17.09765625 23.55859375 C17.10551147 25.37315063 17.10551147 25.37315063 17.11352539 27.22436523 C17 30 17 30 16 31 C13.3013095 31.07325436 10.63497444 31.09222351 7.9375 31.0625 C5.318125 31.041875 2.69875 31.02125 0 31 C0 20.77 0 10.54 0 0 Z " fill="#E5E5E6" transform="translate(567,554)"/>
<path d="M0 0 C-1 7 -1 7 -1.5234375 10.19921875 C-2.05186886 14.41367543 -2.19111708 18.50807283 -2.1875 22.75 C-2.18814453 23.53552246 -2.18878906 24.32104492 -2.18945312 25.13037109 C-2.13422052 31.24236096 -1.46710791 37.05297329 0 43 C-5.38991284 40.62003849 -8.7203892 36.50105747 -11.375 31.3125 C-13.05621498 22.4020606 -12.71445122 13.70504879 -8.125 5.75 C-3.68181818 0 -3.68181818 0 0 0 Z " fill="#25242C" transform="translate(360,317)"/>
<path d="M0 0 C1.68950775 0.01273453 1.68950775 0.01273453 3.41314697 0.02572632 C7.01077912 0.05931436 10.6061703 0.13461082 14.203125 0.2109375 C16.64189472 0.24102979 19.08069956 0.26840686 21.51953125 0.29296875 C27.49816048 0.35912354 33.47548267 0.45952817 39.453125 0.5859375 C38.28047558 3.30435206 37.65014973 4.6992218 35.453125 6.5859375 C31.61472464 7.46670274 27.82628327 7.28274587 23.90625 7.171875 C22.7799115 7.16338531 21.653573 7.15489563 20.49310303 7.14614868 C16.89547088 7.11256064 13.3000797 7.03726418 9.703125 6.9609375 C7.26435528 6.93084521 4.82555044 6.90346814 2.38671875 6.87890625 C-3.59191048 6.81275146 -9.56923267 6.71234683 -15.546875 6.5859375 C-12.2853431 -0.97488645 -7.59280327 -0.21474835 0 0 Z " fill="#232731" transform="translate(333.546875,293.4140625)"/>
<path d="M0 0 C2.5760796 7.65156977 4.93269533 15.96689762 3 24 C0.37384397 26.8592468 -2.42839957 28.52139793 -6 30 C-6.33 30 -6.66 30 -7 30 C-7.08040527 29.40050537 -7.16081055 28.80101074 -7.24365234 28.18334961 C-7.61546743 25.43398653 -7.99517304 22.68576722 -8.375 19.9375 C-8.56449219 18.52307617 -8.56449219 18.52307617 -8.7578125 17.08007812 C-9.48116298 11.89003845 -10.40684931 6.99418108 -12 2 C-7.72424275 -1.23921004 -5.16347713 -1.11369115 0 0 Z " fill="#111017" transform="translate(482,315)"/>
<path d="M0 0 C1.31291016 -0.02513672 1.31291016 -0.02513672 2.65234375 -0.05078125 C5.0625 0.3125 5.0625 0.3125 6.8671875 1.6328125 C8.64979304 4.13778107 8.2614027 6.32895945 8.0625 9.3125 C6.7425 9.3125 5.4225 9.3125 4.0625 9.3125 C3.7325 8.3225 3.4025 7.3325 3.0625 6.3125 C0.0925 5.8175 0.0925 5.8175 -2.9375 5.3125 C-2.9375 7.6225 -2.9375 9.9325 -2.9375 12.3125 C-2.22722656 12.51746094 -1.51695312 12.72242188 -0.78515625 12.93359375 C0.13394531 13.20300781 1.05304687 13.47242188 2 13.75 C2.91652344 14.01683594 3.83304688 14.28367187 4.77734375 14.55859375 C7.0625 15.3125 7.0625 15.3125 8.0625 16.3125 C8.21417148 18.26672866 8.28429996 20.22759729 8.3125 22.1875 C8.33828125 23.25742187 8.3640625 24.32734375 8.390625 25.4296875 C8.0625 28.3125 8.0625 28.3125 6.859375 30.16796875 C4.49330802 31.67505054 2.85614884 31.74584278 0.0625 31.75 C-0.80375 31.76933594 -1.67 31.78867187 -2.5625 31.80859375 C-4.9375 31.3125 -4.9375 31.3125 -6.73828125 29.45703125 C-8.17247194 26.89230587 -8.17869949 25.20689385 -7.9375 22.3125 C-6.2875 22.3125 -4.6375 22.3125 -2.9375 22.3125 C-2.6075 23.3025 -2.2775 24.2925 -1.9375 25.3125 C-0.2875 25.3125 1.3625 25.3125 3.0625 25.3125 C3.0625 23.3325 3.0625 21.3525 3.0625 19.3125 C-0.2375 17.6625 -3.5375 16.0125 -6.9375 14.3125 C-6.99139087 12.35446493 -7.03024217 10.39601091 -7.0625 8.4375 C-7.08570313 7.34695313 -7.10890625 6.25640625 -7.1328125 5.1328125 C-6.7878199 0.15111943 -4.40820638 0.01941941 0 0 Z " fill="#EFEFEF" transform="translate(650.9375,553.6875)"/>
<path d="M0 0 C0.9796875 0.00515625 1.959375 0.0103125 2.96875 0.015625 C3.9484375 0.01046875 4.928125 0.0053125 5.9375 0 C8.46875 0.265625 8.46875 0.265625 10.46875 2.265625 C10.59375 5.890625 10.59375 5.890625 10.46875 9.265625 C9.14875 9.265625 7.82875 9.265625 6.46875 9.265625 C6.13875 8.275625 5.80875 7.285625 5.46875 6.265625 C3.81875 6.265625 2.16875 6.265625 0.46875 6.265625 C0.13875 8.245625 -0.19125 10.225625 -0.53125 12.265625 C1.3559375 12.69875 1.3559375 12.69875 3.28125 13.140625 C6.3226899 13.83866039 7.77544878 14.47009085 10.46875 16.265625 C10.83203125 19.234375 10.83203125 19.234375 10.78125 22.765625 C10.77738281 23.9309375 10.77351562 25.09625 10.76953125 26.296875 C10.46875 29.265625 10.46875 29.265625 8.46875 31.265625 C5.9375 31.53125 5.9375 31.53125 2.96875 31.515625 C1.9890625 31.52078125 1.009375 31.5259375 0 31.53125 C-2.53125 31.265625 -2.53125 31.265625 -4.53125 29.265625 C-4.65625 25.640625 -4.65625 25.640625 -4.53125 22.265625 C-3.21125 22.265625 -1.89125 22.265625 -0.53125 22.265625 C-0.20125 23.255625 0.12875 24.245625 0.46875 25.265625 C2.11875 25.265625 3.76875 25.265625 5.46875 25.265625 C5.46875 23.285625 5.46875 21.305625 5.46875 19.265625 C4.91445313 19.00007812 4.36015625 18.73453125 3.7890625 18.4609375 C3.06460938 18.10773437 2.34015625 17.75453125 1.59375 17.390625 C0.87445312 17.04257812 0.15515625 16.69453125 -0.5859375 16.3359375 C-2.53125 15.265625 -2.53125 15.265625 -4.53125 13.265625 C-4.796875 10.734375 -4.796875 10.734375 -4.78125 7.765625 C-4.78640625 6.7859375 -4.7915625 5.80625 -4.796875 4.796875 C-4.42652019 1.26761155 -3.52926345 0.37035481 0 0 Z " fill="#F0F0F1" transform="translate(530.53125,553.734375)"/>
<path d="M0 0 C3.87709299 1.26200678 5.69597458 2.34047575 7.75 5.875 C8.15734375 6.55304688 8.5646875 7.23109375 8.984375 7.9296875 C12.17850621 14.44080113 12.00367554 22.90912032 11 30 C8.72578123 36.18923297 5.80068887 39.86743037 0 43 C0.89528523 36.34930972 0.89528523 36.34930972 1.5234375 34.25390625 C2.22974398 30.91342396 2.19055143 27.58641271 2.1875 24.1875 C2.18814453 23.4457251 2.18878906 22.7039502 2.18945312 21.93969727 C2.1200941 14.51749326 1.19339762 7.32021576 0 0 Z " fill="#242732" transform="translate(488,317)"/>
<path d="M0 0 C0.80646252 12.50016901 -5.09494863 22.85452608 -12.625 32.5625 C-15.03396025 35.03485394 -15.78817405 35.39693563 -19 36 C-18.55836025 28.83240406 -16.82838878 23.36088847 -13.8125 16.875 C-13.43802734 16.02035156 -13.06355469 15.16570312 -12.67773438 14.28515625 C-6.17151498 0 -6.17151498 0 0 0 Z " fill="#2E2626" transform="translate(528,462)"/>
<path d="M0 0 C0.99 0.33 1.98 0.66 3 1 C3.67246639 25.25860247 3.67246639 25.25860247 -1.35546875 31.75 C-3 33 -3 33 -7 33 C-11.03794757 24.92410486 -6.44527972 13.08548696 -4 5 C-2.41717791 1.20858896 -2.41717791 1.20858896 0 0 Z " fill="#171419" transform="translate(497,535)"/>
<path d="M0 0 C1.71875 1.24609375 1.71875 1.24609375 3 3 C3.06928274 7.62462322 1.52268523 11.31760539 -1.25 14.9375 C-5.50485532 18.12864149 -9.66014855 19.59331683 -15 19 C-17 17 -17 17 -17.0625 13.875 C-16.20295181 8.81321623 -12.60682964 5.42570064 -9 2 C-5.53076119 -0.31282587 -4.07794425 -0.42478586 0 0 Z " fill="#201C1E" transform="translate(443,498)"/>
<path d="M0 0 C-0.33 2.31 -0.66 4.62 -1 7 C1.34058637 4.87219421 2.70700306 2.88437779 4 0 C5.65 0 7.3 0 9 0 C8.40312566 3.34249629 7.26396123 5.46436342 5 8 C4.34 8 3.68 8 3 8 C3.4640625 9.85625 3.4640625 9.85625 3.9375 11.75 C4.625 14.5 5.3125 17.25 6 20 C4.35 20.66 2.7 21.32 1 22 C-0.13764351 17.73383684 -1 14.43513689 -1 10 C-1.66 10 -2.32 10 -3 10 C-3.144375 10.763125 -3.28875 11.52625 -3.4375 12.3125 C-4 15 -4 15 -5 18 C-6.32 18 -7.64 18 -9 18 C-8.40380045 13.13103697 -7.43023178 8.67209049 -6 4 C-6.99 4.33 -7.98 4.66 -9 5 C-9 6.65 -9 8.3 -9 10 C-10.98 10.99 -10.98 10.99 -13 12 C-14 11 -14 11 -14.1875 7.5625 C-14 4 -14 4 -12 2 C-7.89729367 0.60662804 -4.33784263 -0.26289955 0 0 Z " fill="#EFEFF0" transform="translate(708,733)"/>
<path d="M0 0 C1.67578125 1.63671875 1.67578125 1.63671875 3.3125 3.6875 C5.69058393 6.54943651 8.07888576 9.05339258 10.9375 11.4375 C11.948125 12.283125 12.95875 13.12875 14 14 C14 14.33 14 14.66 14 15 C8.72 15 3.44 15 -2 15 C-2 14.34 -2 13.68 -2 13 C-2.66 13 -3.32 13 -4 13 C-5.5078125 11.390625 -5.5078125 11.390625 -7.125 9.25 C-7.66382813 8.55390625 -8.20265625 7.8578125 -8.7578125 7.140625 C-10 5 -10 5 -10 1 C-3.67073656 -1.44539724 -3.67073656 -1.44539724 0 0 Z " fill="#100F16" transform="translate(451,402)"/>
<path d="M0 0 C12.21 0 24.42 0 37 0 C33 6 33 6 29.94726562 6.77636719 C28.19446289 6.78651855 28.19446289 6.78651855 26.40625 6.796875 C24.49005859 6.80847656 24.49005859 6.80847656 22.53515625 6.8203125 C21.54153076 6.80145996 21.54153076 6.80145996 20.52783203 6.78222656 C18.50409395 6.75006506 16.4883346 6.78191983 14.46484375 6.8203125 C13.18738281 6.81257813 11.90992188 6.80484375 10.59375 6.796875 C9.42521484 6.79010742 8.25667969 6.78333984 7.05273438 6.77636719 C4 6 4 6 0 0 Z " fill="#22222B" transform="translate(475,294)"/>
<path d="M0 0 C3.5 0.125 3.5 0.125 4.5 1.125 C4.60011296 4.11366642 4.63873975 7.07410453 4.625 10.0625 C4.62886719 10.89974609 4.63273438 11.73699219 4.63671875 12.59960938 C4.63542969 13.40076172 4.63414062 14.20191406 4.6328125 15.02734375 C4.63168457 15.76460693 4.63055664 16.50187012 4.62939453 17.26147461 C4.5 19.125 4.5 19.125 3.5 21.125 C1.16705225 21.16741723 -1.16702567 21.16592937 -3.5 21.125 C-5.05606751 19.56893249 -4.62970769 18.06542629 -4.6328125 15.90625 C-4.63410156 15.05675781 -4.63539063 14.20726562 -4.63671875 13.33203125 C-4.63285156 12.43871094 -4.62898437 11.54539062 -4.625 10.625 C-4.62886719 9.73167969 -4.63273438 8.83835937 -4.63671875 7.91796875 C-4.63542969 7.06847656 -4.63414062 6.21898437 -4.6328125 5.34375 C-4.63168457 4.55935547 -4.63055664 3.77496094 -4.62939453 2.96679688 C-4.39197448 -0.41263121 -3.49681912 0.1248864 0 0 Z " fill="#25252D" transform="translate(597.5,558.875)"/>
<path d="M0 0 C3 0.125 3 0.125 4 1.125 C4.09899523 2.67455559 4.13079524 4.22853673 4.1328125 5.78125 C4.13474609 7.19083984 4.13474609 7.19083984 4.13671875 8.62890625 C4.13285156 9.61761719 4.12898437 10.60632813 4.125 11.625 C4.12886719 12.61371094 4.13273438 13.60242188 4.13671875 14.62109375 C4.13542969 15.56082031 4.13414062 16.50054688 4.1328125 17.46875 C4.13168457 18.33693359 4.13055664 19.20511719 4.12939453 20.09960938 C4 22.125 4 22.125 3 23.125 C0.66055264 22.83769945 -1.6739143 22.50563221 -4 22.125 C-4.02887814 18.64585059 -4.04675687 15.16673169 -4.0625 11.6875 C-4.07087891 10.69427734 -4.07925781 9.70105469 -4.08789062 8.67773438 C-4.09111328 7.73349609 -4.09433594 6.78925781 -4.09765625 5.81640625 C-4.10289307 4.94185791 -4.10812988 4.06730957 -4.11352539 3.16625977 C-3.92954672 -0.14179542 -3.37414143 0.14058923 0 0 Z " fill="#16161D" transform="translate(630,557.875)"/>
<path d="M0 0 C4.43728151 -0.11586755 8.87417591 -0.18714058 13.3125 -0.25 C14.57513672 -0.28351563 15.83777344 -0.31703125 17.13867188 -0.3515625 C18.95141602 -0.37089844 18.95141602 -0.37089844 20.80078125 -0.390625 C21.91622314 -0.41157227 23.03166504 -0.43251953 24.1809082 -0.45410156 C27 0 27 0 28.88745117 1.89941406 C30 4 30 4 30 6 C20.1 6 10.2 6 0 6 C0 4.02 0 2.04 0 0 Z " fill="#1E1D25" transform="translate(257,294)"/>
<path d="M0 0 C5.28 0 10.56 0 16 0 C16 1.32 16 2.64 16 4 C14.02 4 12.04 4 10 4 C10 12.25 10 20.5 10 29 C8.68 29 7.36 29 6 29 C6 20.75 6 12.5 6 4 C4.02 4 2.04 4 0 4 C0 2.68 0 1.36 0 0 Z " fill="#FDFDFD" transform="translate(546,555)"/>
<path d="M0 0 C12.87 0 25.74 0 39 0 C39 0.66 39 1.32 39 2 C38.09906616 2.08302368 38.09906616 2.08302368 37.17993164 2.16772461 C34.47366869 2.41970782 31.76810116 2.6785117 29.0625 2.9375 C28.11697266 3.02451172 27.17144531 3.11152344 26.19726562 3.20117188 C25.29814453 3.28818359 24.39902344 3.37519531 23.47265625 3.46484375 C22.64000244 3.543396 21.80734863 3.62194824 20.94946289 3.70288086 C18.999388 3.80311398 18.999388 3.80311398 18 5 C16.29436222 5.15740605 14.58272756 5.25093392 12.87109375 5.31640625 C11.83662109 5.35830078 10.80214844 5.40019531 9.73632812 5.44335938 C8.1034082 5.50233398 8.1034082 5.50233398 6.4375 5.5625 C4.7987793 5.62727539 4.7987793 5.62727539 3.12695312 5.69335938 C0.41810436 5.79982068 -2.29083992 5.90183516 -5 6 C-4.67 5.34 -4.34 4.68 -4 4 C-2.68 4 -1.36 4 0 4 C0 2.68 0 1.36 0 0 Z " fill="#111A29" transform="translate(685,459)"/>
<path d="M0 0 C2.475 0.495 2.475 0.495 5 1 C5 10.9 5 20.8 5 31 C3.35 30.67 1.7 30.34 0 30 C0 20.1 0 10.2 0 0 Z " fill="#D7D7D8" transform="translate(611,554)"/>
<path d="M0 0 C1.32 0 2.64 0 4 0 C3.67 1.65 3.34 3.3 3 5 C4.32 5.33 5.64 5.66 7 6 C5.35 6 3.7 6 2 6 C1.67 8.64 1.34 11.28 1 14 C1.66 14.33 2.32 14.66 3 15 C2 16 2 16 -0.375 16.125 C-3 16 -3 16 -6 15 C-8.00875442 15.27571139 -10.01178687 15.60235737 -12 16 C-11.67 12.37 -11.34 8.74 -11 5 C-9.35 4.67 -7.7 4.34 -6 4 C-6.48578543 7.12290635 -6.9986012 9.99580359 -8 13 C-7.01 12.67 -6.02 12.34 -5 12 C-3.89786379 9.27366306 -3 6.95855967 -3 4 C-2.34 4 -1.68 4 -1 4 C-0.67 2.68 -0.34 1.36 0 0 Z " fill="#EEEEEE" transform="translate(727,735)"/>
<path d="M0 0 C10.13500813 -0.40613876 19.57014277 2.5778226 27.95703125 8.1640625 C28.78847656 8.71449219 29.61992187 9.26492188 30.4765625 9.83203125 C36.67591211 14.2545594 36.67591211 14.2545594 38.01953125 18.6015625 C37.99890625 19.4471875 37.97828125 20.2928125 37.95703125 21.1640625 C37.02890625 20.143125 37.02890625 20.143125 36.08203125 19.1015625 C22.56018208 5.73121864 8.19932661 3.29480408 -10.04296875 3.1640625 C-9.71296875 2.5040625 -9.38296875 1.8440625 -9.04296875 1.1640625 C-6.00883081 0.53195043 -3.08236666 0.24753231 0 0 Z " fill="#F8A013" transform="translate(424.04296875,287.8359375)"/>
<path d="M0 0 C-0.47050781 0.51949219 -0.94101562 1.03898438 -1.42578125 1.57421875 C-5.80435282 6.47858152 -9.37641713 10.50566852 -11 17 C-13.97 17 -16.94 17 -20 17 C-19.21421028 10.72474968 -15.50876686 7.17449621 -11 3 C-4.43804538 -1.47934846 -4.43804538 -1.47934846 0 0 Z " fill="#EEEFEF" transform="translate(282,251)"/>
<path d="M0 0 C1.1875 2.75 1.1875 2.75 2 6 C0.6875 8.0625 0.6875 8.0625 -1 10 C-1.71433121 12.64934822 -1.71433121 12.64934822 -2 15 C-3.32 14.67 -4.64 14.34 -6 14 C-6 12.68 -6 11.36 -6 10 C-6.66 10 -7.32 10 -8 10 C-10.15502531 6.76746204 -10.46856135 5.74849077 -10 2 C-7.58628749 -2.25949266 -4.24852727 -0.88176981 0 0 Z " fill="#251B1F" transform="translate(775,492)"/>
<path d="M0 0 C5.28 0 10.56 0 16 0 C15.67 1.32 15.34 2.64 15 4 C13.68 4.33 12.36 4.66 11 5 C11.99 5.33 12.98 5.66 14 6 C13.67 7.65 13.34 9.3 13 11 C10.03 10.505 10.03 10.505 7 10 C7 8.68 7 7.36 7 6 C5.01508358 6.26676204 5.01508358 6.26676204 3 7 C2.67 7.99 2.34 8.98 2 10 C1.34 8.68 0.68 7.36 0 6 C0.66 6 1.32 6 2 6 C2 5.34 2 4.68 2 4 C1.34 3.67 0.68 3.34 0 3 C0 2.01 0 1.02 0 0 Z " fill="#1E2027" transform="translate(721,367)"/>
<path d="M0 0 C0.66 0 1.32 0 2 0 C2.67157021 5.98417022 3.145373 11.98242173 3.375 18 C3.42398438 19.0725 3.47296875 20.145 3.5234375 21.25 C3 24 3 24 0.4765625 25.875 C-0.34070313 26.24625 -1.15796875 26.6175 -2 27 C-2.25586913 23.43889325 -2.47496153 19.87643455 -2.6875 16.3125 C-2.76033203 15.30509766 -2.83316406 14.29769531 -2.90820312 13.25976562 C-3.32807219 5.77621692 -3.32807219 5.77621692 -1.64453125 1.79296875 C-1.10183594 1.20128906 -0.55914063 0.60960937 0 0 Z " fill="#191D29" transform="translate(618,347)"/>
<path d="M0 0 C0.99 0.33 1.98 0.66 3 1 C3 1.99 3 2.98 3 4 C3.7425 4.0825 4.485 4.165 5.25 4.25 C8 5 8 5 9.65625 7 C12.94024699 9.8023441 16.11820625 9.66970012 20.25 9.75 C20.99507812 9.77964844 21.74015625 9.80929687 22.5078125 9.83984375 C24.33796672 9.9102343 26.16898769 9.95741832 28 10 C28 10.33 28 10.66 28 11 C18.1 11 8.2 11 -2 11 C-1 1 -1 1 0 0 Z " fill="#24242C" transform="translate(687,492)"/>
<path d="M0 0 C2.73512618 2.47740912 4.50983248 5.24093031 6.4375 8.375 C10.1304988 14.37302489 13.34591621 18.92442621 19.4375 22.625 C20.36433594 23.19476563 21.29117187 23.76453125 22.24609375 24.3515625 C24.09608605 25.45893378 25.9639887 26.53687162 27.84765625 27.5859375 C28.91306641 28.28589844 28.91306641 28.28589844 30 29 C30 29.66 30 30.32 30 31 C19.02510462 29.25178658 11.59829427 21.43180259 5 13 C1.97429521 8.52603651 0 5.47381161 0 0 Z " fill="#E7930B" transform="translate(377,355)"/>
<path d="M0 0 C1.65 0 3.3 0 5 0 C4.40312566 3.34249629 3.26396123 5.46436342 1 8 C0.34 8 -0.32 8 -1 8 C-0.690625 9.2375 -0.38125 10.475 -0.0625 11.75 C0.625 14.5 1.3125 17.25 2 20 C0.35 20.66 -1.3 21.32 -3 22 C-3.61341957 19.94624723 -4.18972539 17.88138288 -4.75 15.8125 C-5.07484375 14.66394531 -5.3996875 13.51539063 -5.734375 12.33203125 C-6 9 -6 9 -4.15625 6.21875 C-3.4446875 5.4865625 -2.733125 4.754375 -2 4 C-1.29114106 2.68861096 -0.60543548 1.36222983 0 0 Z " fill="#E4E4E5" transform="translate(712,733)"/>
<path d="M0 0 C3.99757227 0.9137308 5.64912467 2.54958306 7.8125 5.875 C9.78763304 9.07167685 10 10.02412376 10 14 C8.46875 15.484375 8.46875 15.484375 6.5 16.75 C5.8503125 17.17796875 5.200625 17.6059375 4.53125 18.046875 C4.0259375 18.36140625 3.520625 18.6759375 3 19 C2.49666458 16.39643759 1.99720622 13.79223349 1.5 11.1875 C1.35691406 10.44951172 1.21382813 9.71152344 1.06640625 8.95117188 C0.49073719 5.92205609 0 3.090804 0 0 Z " fill="#1E1E25" transform="translate(488,317)"/>
<path d="M0 0 C2.63908792 3.12523569 4 4.86465853 4 9 C0.7 9.66 -2.6 10.32 -6 11 C-9 4.375 -9 4.375 -9 1 C-5.62409801 -0.12530066 -3.53135195 -0.50447885 0 0 Z " fill="#111016" transform="translate(441,388)"/>
<path d="M0 0 C3.63 0 7.26 0 11 0 C11 2.97 11 5.94 11 9 C7.37 9 3.74 9 0 9 C0 6.03 0 3.06 0 0 Z " fill="#212329" transform="translate(679,368)"/>
<path d="M0 0 C1.32 0 2.64 0 4 0 C3.48594831 4.96916636 2.76615118 9.29026351 1 14 C1.66 14 2.32 14 3 14 C3 13.34 3 12.68 3 12 C3.66 12.33 4.32 12.66 5 13 C4.01 14.32 3.02 15.64 2 17 C0.35 16.67 -1.3 16.34 -3 16 C-3 15.34 -3 14.68 -3 14 C-3.66 13.67 -4.32 13.34 -5 13 C-3.3770361 8.64750591 -1.74849671 4.3039919 0 0 Z " fill="#E8E8E9" transform="translate(745,734)"/>
<path d="M0 0 C2.4375 0.1875 2.4375 0.1875 3.4375 1.1875 C3.71064815 6.92361111 3.71064815 6.92361111 3.4375 9.1875 C1.4375 11.1875 1.4375 11.1875 -1.0625 11.4375 C-3.5625 11.1875 -3.5625 11.1875 -5.5625 9.1875 C-4.93202715 0.36088004 -4.93202715 0.36088004 0 0 Z " fill="#F69801" transform="translate(410.5625,474.8125)"/>
<path d="M0 0 C2.375 0.75 2.375 0.75 3.375 1.75 C3.83191383 7.00450902 3.83191383 7.00450902 2.1875 9.6875 C0.375 10.75 0.375 10.75 -2.25 10.5 C-4.625 9.75 -4.625 9.75 -5.625 8.75 C-6.08191383 3.49549098 -6.08191383 3.49549098 -4.4375 0.8125 C-2.625 -0.25 -2.625 -0.25 0 0 Z " fill="#FB9A00" transform="translate(566.625,475.25)"/>
<path d="M0 0 C0.33 0 0.66 0 1 0 C1.06058594 0.75925781 1.12117187 1.51851563 1.18359375 2.30078125 C1.26738281 3.29464844 1.35117187 4.28851563 1.4375 5.3125 C1.51871094 6.29863281 1.59992187 7.28476562 1.68359375 8.30078125 C1.91812559 11.09375599 1.91812559 11.09375599 3 14 C1.5625 16.1875 1.5625 16.1875 0 18 C0 15.69 0 13.38 0 11 C-0.63808594 11.01160156 -1.27617188 11.02320313 -1.93359375 11.03515625 C-3.17302734 11.04869141 -3.17302734 11.04869141 -4.4375 11.0625 C-5.67306641 11.07990234 -5.67306641 11.07990234 -6.93359375 11.09765625 C-9 11 -9 11 -10 10 C-10.04063832 8.33382885 -10.042721 6.66611905 -10 5 C-8.02 5 -6.04 5 -4 5 C-4 5.99 -4 6.98 -4 8 C-3.67 7.01 -3.34 6.02 -3 5 C-2.01 5 -1.02 5 0 5 C0 3.35 0 1.7 0 0 Z " fill="#1F2229" transform="translate(756,368)"/>
<path d="M0 0 C4.95 0 9.9 0 15 0 C15 1.65 15 3.3 15 5 C10.05 5 5.1 5 0 5 C0 3.35 0 1.7 0 0 Z " fill="#202128" transform="translate(785,491)"/>
<path d="M0 0 C1.32 0.33 2.64 0.66 4 1 C3.8125 2.875 3.8125 2.875 3 5 C1.7934375 5.309375 1.7934375 5.309375 0.5625 5.625 C-2.21320181 6.72651974 -2.21320181 6.72651974 -2.703125 9.30859375 C-3.02305209 11.12753405 -3.30387255 12.95383701 -3.54296875 14.78515625 C-3.69378906 15.51605469 -3.84460938 16.24695313 -4 17 C-4.66 17.33 -5.32 17.66 -6 18 C-8.10275875 14.58301703 -8.64927702 11.97682173 -8 8 C-5.125 5.3125 -5.125 5.3125 -2 3 C-1.34 2.01 -0.68 1.02 0 0 Z " fill="#2C2D35" transform="translate(719,733)"/>
<path d="M0 0 C1.98 0 3.96 0 6 0 C6 3.63 6 7.26 6 11 C4.02 11 2.04 11 0 11 C0 7.37 0 3.74 0 0 Z " fill="#1A1B24" transform="translate(325,231)"/>
<path d="M0 0 C-2 2 -2 2 -5.375 3.1875 C-10.45670093 4.9810415 -14.87901086 7.7728636 -19.4609375 10.57421875 C-22 12 -22 12 -24 12 C-21.80947143 5.97272745 -15.38737902 3.74191413 -10 1 C-6.30642578 -0.53148199 -3.92563292 -1.30854431 0 0 Z " fill="#F49A09" transform="translate(415,290)"/>
<path d="M0 0 C6.46012473 5.921781 10.77743427 14.03197419 11.875 22.8125 C11.91625 23.864375 11.9575 24.91625 12 26 C11.67 25.01 11.34 24.02 11 23 C10.34 23 9.68 23 9 23 C8.76925781 22.2265625 8.53851563 21.453125 8.30078125 20.65625 C6.4561379 14.76505702 4.55163194 9.66117124 0.953125 4.62109375 C0 3 0 3 0 0 Z " fill="#F09708" transform="translate(462,306)"/>
<path d="M0 0 C4 1 4 1 5 2 C5.07179964 3.51928038 5.08392007 5.04167482 5.0625 6.5625 C5.05347656 7.38878906 5.04445313 8.21507812 5.03515625 9.06640625 C5.01775391 10.02353516 5.01775391 10.02353516 5 11 C3.35 11 1.7 11 0 11 C0 7.37 0 3.74 0 0 Z " fill="#1F1F28" transform="translate(337,231)"/>
<path d="M0 0 C0.66 0.33 1.32 0.66 2 1 C1.37165495 4.79111532 0.26471197 8.00780452 -1.28515625 11.51953125 C-1.73310547 12.54111328 -2.18105469 13.56269531 -2.64257812 14.61523438 C-3.11115234 15.67033203 -3.57972656 16.72542969 -4.0625 17.8125 C-4.53494141 18.88693359 -5.00738281 19.96136719 -5.49414062 21.06835938 C-6.65832536 23.71423376 -7.82707832 26.35798995 -9 29 C-10.36608189 24.90175434 -9.09909474 23.44282805 -7.3125 19.5625 C-4.4333668 13.16722748 -2.08641723 6.70108121 0 0 Z " fill="#FFE7C0" transform="translate(438,300)"/>
<path d="M0 0 C0.84433594 0.00322266 1.68867187 0.00644531 2.55859375 0.00976562 C3.86763672 0.02233398 3.86763672 0.02233398 5.203125 0.03515625 C6.09128906 0.03966797 6.97945312 0.04417969 7.89453125 0.04882812 C10.08079829 0.06058225 12.26692679 0.07701376 14.453125 0.09765625 C14.123125 0.75765625 13.793125 1.41765625 13.453125 2.09765625 C5.863125 2.42765625 -1.726875 2.75765625 -9.546875 3.09765625 C-8.546875 1.09765625 -8.546875 1.09765625 -6.76855469 0.47875977 C-4.46268642 0.08321467 -2.3386419 -0.01580163 0 0 Z " fill="#201F26" transform="translate(689.546875,461.90234375)"/>
<path d="M0 0 C2.97 0 5.94 0 9 0 C9.33 1.32 9.66 2.64 10 4 C9 5 9 5 7.15234375 5.09765625 C5.1015625 5.06510417 3.05078125 5.03255208 1 5 C0.67 3.35 0.34 1.7 0 0 Z " fill="#EDEDED" transform="translate(316,391)"/>
<path d="M0 0 C1.23556641 0.01740234 1.23556641 0.01740234 2.49609375 0.03515625 C3.32238281 0.04417969 4.14867187 0.05320312 5 0.0625 C5.63808594 0.07410156 6.27617187 0.08570313 6.93359375 0.09765625 C6.60359375 1.74765625 6.27359375 3.39765625 5.93359375 5.09765625 C3.29359375 5.09765625 0.65359375 5.09765625 -2.06640625 5.09765625 C-2.62890625 3.16015625 -2.62890625 3.16015625 -3.06640625 1.09765625 C-2.06640625 0.09765625 -2.06640625 0.09765625 0 0 Z " fill="#EDEDED" transform="translate(303.06640625,390.90234375)"/>
<path d="M0 0 C2.25 0.875 2.25 0.875 4 2 C2.69289063 2.45439453 2.69289063 2.45439453 1.359375 2.91796875 C-5.75416129 5.42002426 -12.69510307 8.07058786 -19.57421875 11.1796875 C-22 12 -22 12 -25 11 C-24.38479492 10.73783691 -23.76958984 10.47567383 -23.13574219 10.20556641 C-20.33994867 9.01332024 -17.54496791 7.81918026 -14.75 6.625 C-13.78191406 6.2125 -12.81382812 5.8 -11.81640625 5.375 C-10.88183594 4.97539062 -9.94726562 4.57578125 -8.984375 4.1640625 C-7.69611816 3.61419678 -7.69611816 3.61419678 -6.38183594 3.05322266 C-4.00326347 2.04176762 -4.00326347 2.04176762 -1.82910156 0.81005859 C-1.22549805 0.54273926 -0.62189453 0.27541992 0 0 Z " fill="#FFE4B8" transform="translate(458,323)"/>
<path d="M0 0 C2.05078125 0.03255208 4.1015625 0.06510417 6.15234375 0.09765625 C6.71484375 2.03515625 6.71484375 2.03515625 7.15234375 4.09765625 C6.15234375 5.09765625 6.15234375 5.09765625 4.3046875 5.1953125 C2.25390625 5.16276042 0.203125 5.13020833 -1.84765625 5.09765625 C-2.41015625 3.16015625 -2.41015625 3.16015625 -2.84765625 1.09765625 C-1.84765625 0.09765625 -1.84765625 0.09765625 0 0 Z " fill="#F0F0F1" transform="translate(286.84765625,390.90234375)"/>
<path d="M0 0 C0.99 0.33 1.98 0.66 3 1 C4.13880349 3.54451405 5.10063869 5.99717867 6 8.625 C6.49836338 10.03443393 6.99835328 11.44329384 7.5 12.8515625 C7.74234375 13.54411133 7.9846875 14.23666016 8.234375 14.95019531 C8.98598189 16.96246936 9.84795684 18.88731926 10.75 20.8359375 C12 24 12 24 11 27 C9.1607188 22.87762652 7.32958658 18.75168422 5.5 14.625 C4.97535156 13.449375 4.45070313 12.27375 3.91015625 11.0625 C3.41386719 9.94101562 2.91757812 8.81953125 2.40625 7.6640625 C1.94541016 6.62717285 1.48457031 5.5902832 1.00976562 4.52197266 C0 2 0 2 0 0 Z " fill="#FFE4B8" transform="translate(408,302)"/>
<path d="M0 0 C0.33 0 0.66 0 1 0 C1.03738281 0.75925781 1.07476563 1.51851563 1.11328125 2.30078125 C1.17902344 3.29464844 1.24476563 4.28851563 1.3125 5.3125 C1.37050781 6.29863281 1.42851563 7.28476562 1.48828125 8.30078125 C2.05661561 11.29863656 2.7680863 12.0500754 5 14 C4.9375 16 4.9375 16 4 18 C2.69179852 19.03265999 1.36009458 20.0367137 0 21 C-0.7938642 13.78194245 -1.07875823 7.19172157 0 0 Z " fill="#1F1E25" transform="translate(757,390)"/>
<path d="M0 0 C0.33 0.99 0.66 1.98 1 3 C-4.94 3 -10.88 3 -17 3 C-16.67 2.34 -16.34 1.68 -16 1 C-10.66645094 -0.11115605 -5.43087408 -0.11083416 0 0 Z " fill="#F4A424" transform="translate(431,288)"/>
<path d="M0 0 C2.64 0 5.28 0 8 0 C8.33 1.65 8.66 3.3 9 5 C6.36 5 3.72 5 1 5 C0.67 3.35 0.34 1.7 0 0 Z " fill="#23242B" transform="translate(677,381)"/>
<path d="M0 0 C0.66 0.33 1.32 0.66 2 1 C0.92492371 2.29854721 -0.16043736 3.58858361 -1.25 4.875 C-1.85328125 5.59429687 -2.4565625 6.31359375 -3.078125 7.0546875 C-5.0069492 9.00703394 -6.41557814 10.10062119 -9 11 C-9.99 10.67 -10.98 10.34 -12 10 C-4.40952513 2.01578292 -4.40952513 2.01578292 0 0 Z " fill="#212129" transform="translate(639,305)"/>
<path d="M0 0 C4.95 0 9.9 0 15 0 C11.62487485 3.37512515 7.1626118 2.9788616 2.5625 3.0625 C1.2940625 3.0315625 1.2940625 3.0315625 0 3 C0 2.01 0 1.02 0 0 Z " fill="#1F1E25" transform="translate(739,504)"/>
<path d="M0 0 C1.3326971 3.99809131 0.24487052 5.57258893 -1.3125 9.4375 C-1.76238281 10.57058594 -2.21226562 11.70367187 -2.67578125 12.87109375 C-3.70587919 15.30504198 -4.77551897 17.66026395 -6 20 C-7.22744711 16.54570895 -7.00307297 14.48968711 -5.56640625 11.23046875 C-4.91230923 9.87602543 -4.24387185 8.52842954 -3.5625 7.1875 C-3.22412109 6.49462891 -2.88574219 5.80175781 -2.53710938 5.08789062 C-1.70369793 3.38585318 -0.85348076 1.69206285 0 0 Z " fill="#FFEAC9" transform="translate(415,358)"/>
<path d="M0 0 C2.38535358 2.98169198 4.12210475 5.98540449 5.75 9.4375 C6.42289062 10.82775391 6.42289062 10.82775391 7.109375 12.24609375 C8.10224101 15.31613997 7.90903864 16.94585187 7 20 C5.19817228 16.57315942 3.77826741 13.04414342 2.375 9.4375 C1.92898438 8.30183594 1.48296875 7.16617187 1.0234375 5.99609375 C0 3 0 3 0 0 Z " fill="#FFEAC9" transform="translate(432,358)"/>
<path d="M0 0 C4.40958108 0.66607439 8.26572186 2.26624729 12.3125 4.0625 C13.28026367 4.48499023 13.28026367 4.48499023 14.26757812 4.91601562 C15.84698358 5.6062743 17.42376493 6.30253198 19 7 C14.73493961 8.4216868 11.79962257 6.65386682 7.8125 5.0625 C7.06291016 4.77181641 6.31332031 4.48113281 5.54101562 4.18164062 C3.69075523 3.46274964 1.84493352 2.73245347 0 2 C0 1.34 0 0.68 0 0 Z " fill="#FFE6BF" transform="translate(389,324)"/>
<path d="M0 0 C2.33333333 0 4.66666667 0 7 0 C7 1.65 7 3.3 7 5 C4.36 5 1.72 5 -1 5 C-1 2 -1 2 0 0 Z " fill="#22232A" transform="translate(695,372)"/>
<path d="M0 0 C-0.33 1.65 -0.66 3.3 -1 5 C-3.97 4.505 -3.97 4.505 -7 4 C-6.6875 2.0625 -6.6875 2.0625 -6 0 C-3 -1 -3 -1 0 0 Z " fill="#23242A" transform="translate(735,373)"/>
<path d="M0 0 C4.71403788 0.47939368 8.66579301 0.96834048 13 3 C13 3.66 13 4.32 13 5 C8.428721 4.45144652 4.32564205 3.58255197 0 2 C0 1.34 0 0.68 0 0 Z " fill="#ED970E" transform="translate(432,289)"/>
<path d="M0 0 C1 2 1 2 0.3125 4.5625 C-1 7 -1 7 -3.125 7.8125 C-3.74375 7.874375 -4.3625 7.93625 -5 8 C-4.67 5.69 -4.34 3.38 -4 1 C-2.68 0.67 -1.36 0.34 0 0 Z " fill="#303138" transform="translate(742,740)"/>
<path d="M0 0 C1.95979427 0.28168297 3.91782378 0.57566717 5.875 0.875 C7.51082031 1.11863281 7.51082031 1.11863281 9.1796875 1.3671875 C12 2 12 2 14 4 C4.58997722 4.3690205 4.58997722 4.3690205 0 2 C0 1.34 0 0.68 0 0 Z " fill="#F9A115" transform="translate(407,384)"/>
<path d="M0 0 C1.65 0 3.3 0 5 0 C4.01 2.31 3.02 4.62 2 7 C1.01 7 0.02 7 -1 7 C-0.67 4.69 -0.34 2.38 0 0 Z " fill="#292A32" transform="translate(729,741)"/>
<path d="M0 0 C0.99 0.33 1.98 0.66 3 1 C2.01 2.98 1.02 4.96 0 7 C-0.99 7 -1.98 7 -3 7 C-2.25 2.25 -2.25 2.25 0 0 Z " fill="#33343C" transform="translate(722,741)"/>
<path d="M0 0 C0 0.99 0 1.98 0 3 C0.66 3.33 1.32 3.66 2 4 C0.35 4.66 -1.3 5.32 -3 6 C-3.99 5.01 -4.98 4.02 -6 3 C-3.375 0 -3.375 0 0 0 Z " fill="#14171E" transform="translate(686,369)"/>
<path d="M0 0 C1.32 0 2.64 0 4 0 C4.33 0.66 4.66 1.32 5 2 C5.99 1.67 6.98 1.34 8 1 C8 1.99 8 2.98 8 4 C5.36 4 2.72 4 0 4 C0 2.68 0 1.36 0 0 Z " fill="#202229" transform="translate(785,498)"/>
<path d="M0 0 C0.66 0.66 1.32 1.32 2 2 C-0.31 4.64 -2.62 7.28 -5 10 C-5.66 9.34 -6.32 8.68 -7 8 C-4.69 5.36 -2.38 2.72 0 0 Z " fill="#FCA110" transform="translate(390,301)"/>
<path d="M0 0 C-2.22825644 2.22825644 -3.65761628 2.69239369 -6.625 3.625 C-7.44226563 3.88539063 -8.25953125 4.14578125 -9.1015625 4.4140625 C-9.72804688 4.60742188 -10.35453125 4.80078125 -11 5 C-10.67 3.68 -10.34 2.36 -10 1 C-3.375 -1.125 -3.375 -1.125 0 0 Z " fill="#E28E08" transform="translate(415,290)"/>
<path d="M0 0 C0.99 0.33 1.98 0.66 3 1 C2.34 3.31 1.68 5.62 1 8 C0.67 7.34 0.34 6.68 0 6 C-0.66 6 -1.32 6 -2 6 C-1.125 1.125 -1.125 1.125 0 0 Z " fill="#404047" transform="translate(700,736)"/>
<path d="M0 0 C2.64 0 5.28 0 8 0 C7.67 0.99 7.34 1.98 7 3 C4.69 3 2.38 3 0 3 C0 2.01 0 1.02 0 0 Z " fill="#202228" transform="translate(745,368)"/>
<path d="M0 0 C1.27351308 2.54702616 0.80191925 3.4282945 0.0625 6.125 C-0.13214844 6.84945313 -0.32679688 7.57390625 -0.52734375 8.3203125 C-0.68332031 8.87460937 -0.83929688 9.42890625 -1 10 C-1.99 9.67 -2.98 9.34 -4 9 C-3.38461538 3.46153846 -3.38461538 3.46153846 -1.4375 1.125 C-0.963125 0.75375 -0.48875 0.3825 0 0 Z " fill="#F39C11" transform="translate(473,347)"/>
<path d="M0 0 C1.98 0.495 1.98 0.495 4 1 C3.67 2.32 3.34 3.64 3 5 C1.68 4.67 0.36 4.34 -1 4 C-0.67 2.68 -0.34 1.36 0 0 Z " fill="#DBDBDC" transform="translate(719,733)"/>
<path d="M0 0 C3.0916909 2.52956528 3.90931332 5.22454612 5 9 C4.01 9.495 4.01 9.495 3 10 C0.96564469 6.27034861 0 4.33094958 0 0 Z " fill="#E48E05" transform="translate(377,355)"/>
<path d="M0 0 C2.56616632 3.84924948 2.55097676 6.4349304 3 11 C2.67 10.01 2.34 9.02 2 8 C1.34 8 0.68 8 0 8 C-0.38063221 5.6739143 -0.71269945 3.33944736 -1 1 C-0.67 0.67 -0.34 0.34 0 0 Z " fill="#DE8C0A" transform="translate(471,321)"/>
<path d="M0 0 C2.52588702 2.36292656 3.88820837 3.66462511 5 7 C3.125 6.8125 3.125 6.8125 1 6 C-0.25 3.4375 -0.25 3.4375 -1 1 C-0.67 0.67 -0.34 0.34 0 0 Z " fill="#EF9C17" transform="translate(382,363)"/>
<path d="M0 0 C1.98 0 3.96 0 6 0 C6.33 0.99 6.66 1.98 7 3 C4.69 3 2.38 3 0 3 C0 2.01 0 1.02 0 0 Z " fill="#212329" transform="translate(694,367)"/>
</svg>
